<?xml version="1.0" encoding="UTF-8"?>
<svg width="239px" height="73px" viewBox="0 0 239 73" version="1.1" xmlns="http://www.w3.org/2000/svg" xmlns:xlink="http://www.w3.org/1999/xlink">
    <!-- Generator: Sketch 55.1 (78136) - https://sketchapp.com -->
    <title>暑假准备 2</title>
    <desc>Created with Sketch.</desc>
    <g id="页面1" stroke="none" stroke-width="1" fill="none" fill-rule="evenodd">
        <g id="桌面端HD" transform="translate(-252.000000, -65.000000)" fill="#FFFFFF" fill-rule="nonzero">
            <g id="暑假准备-2" transform="translate(251.864000, 64.920000)">
                <path d="M26.488,27.712 L26.056,30.304 L34.984,29.584 L35.056,35.056 L40.888,32.032 L43.696,36.568 L35.344,41.68 L43.192,42.112 L43.12,46.576 L26.704,47.008 L22.096,49.816 L22.168,50.968 L41.824,48.52 L43.48,71.56 L32.032,71.56 L34.12,56.44 L22.456,55.648 L22.6,58.168 L31.96,57.592 L31.96,62.92 L22.888,61.984 L23.032,64.216 L31.168,66.16 L31.168,70.192 L12.304,70.768 L14.032,54.712 L4.888,60.328 L1,52.408 L10.936,47.368 L2.584,47.512 L2.584,39.88 L16.048,40.672 L15.256,36.784 L7.264,36.352 L7.192,31.816 L14.104,31.312 L13.528,28.288 L26.488,27.712 Z M27.352,17.128 L17.992,16.696 L18.424,19.576 L26.488,20.44 L26.488,25.624 L6.472,26.2 L9.136,1 L15.544,1 L15.76,2.44 L37.792,1 L39.376,26.416 L28,26.416 L30.088,8.344 L16.552,7.624 L17.128,11.152 L27.352,10.144 L27.352,17.128 Z M24.904,37.288 L24.4,40.528 L30.016,37.576 L24.904,37.288 Z M92.305,46.36 L81.793,47.728 L81.865,52.192 L92.377,50.392 L92.737,60.256 L82.009,59.104 L82.225,67.744 L69.769,67.744 L71.713,8.992 L80.929,8.992 L80.929,10.288 L93.961,9.568 L94.969,34.84 L85.033,34.84 L85.105,33.184 L81.433,33.4 L81.577,39.16 L92.305,40.168 L92.305,46.36 Z M103.609,52.912 L108.721,47.008 L96.913,47.944 L96.553,38.224 L114.121,40.312 L116.353,49.384 L110.377,58.024 L116.929,62.92 L109.153,71.416 L104.689,65.944 L101.377,70.768 L93.385,64.864 L98.713,58.672 L94.753,53.776 L99.361,49.672 L103.609,52.912 Z M97.273,27.064 L105.121,28.216 L106.129,18.28 L97.345,16.696 L97.273,10.432 L113.977,9.64 L115.201,36.424 L104.329,36.424 L104.545,34.336 L97.273,35.2 L97.273,27.064 Z M57.529,38.944 L64.585,38.944 L68.041,61.48 L54.505,61.48 L57.529,38.944 Z M59.185,18.424 L69.697,27.496 L52.129,40.96 L47.953,37 L59.185,18.424 Z M81.073,16.984 L81.289,26.56 L85.465,27.208 L86.113,17.488 L81.073,16.984 Z M179.434,12.88 L176.842,18.208 L183.898,17.416 L184.042,26.488 L176.122,26.2 L176.482,31.528 L184.042,32.32 L183.97,38.008 L176.842,38.296 L177.202,43.84 L183.898,43.12 L184.042,52.192 L177.634,51.976 L177.994,58.024 L184.042,58.672 L183.97,64.288 L160.282,65.08 L160.426,56.152 L166.402,56.8 L166.69,51.544 L160.354,51.328 L160.282,45.712 L167.122,44.992 L167.554,38.656 L160.282,38.872 L160.426,29.8 L168.058,30.664 L168.346,25.912 L160.354,25.624 L160.282,19.936 L167.986,19.144 L164.17,12.88 L179.434,12.88 Z M147.466,39.592 L154.954,39.592 L157.762,59.896 L144.442,59.896 L147.466,39.592 Z M133.138,61.912 L121.402,55.864 L133.57,39.304 L139.834,42.184 L133.138,61.912 Z M149.914,21.088 L158.77,30.16 L142.858,41.32 L138.25,36.784 L149.914,21.088 Z M121.834,32.752 L124.714,18.64 L138.826,26.56 L137.242,32.968 L121.834,32.752 Z M232.219,47.44 L229.123,45.64 L230.203,72.784 L217.819,72.784 L218.107,71.56 L194.491,72.208 L193.411,44.416 L206.371,44.416 L206.227,45.424 L227.251,44.488 L212.203,35.488 L191.179,43.912 L188.947,38.872 L203.419,30.232 L197.299,26.488 L199.603,22.24 L210.331,26.128 L218.107,21.448 L201.115,18.928 L194.275,25.192 L190.531,22.672 L198.091,5.824 L209.755,11.008 L206.587,13.888 L227.827,14.032 L229.483,28.504 L223.579,30.88 L238.555,36.28 L232.219,47.44 Z M217.603,65.512 L219.619,65.8 L221.131,59.968 L217.243,60.112 L217.603,65.512 Z M203.707,63.568 L208.603,64.288 L208.891,60.4 L204.139,60.544 L203.707,63.568 Z M216.883,52.84 L217.027,55.648 L222.139,56.224 L222.787,53.776 L216.883,52.84 Z M205.003,54.424 L209.251,54.856 L209.467,51.688 L205.435,51.112 L205.003,54.424 Z" id="暑假准备"></path>
            </g>
        </g>
    </g>
</svg>