<svg xmlns="http://www.w3.org/2000/svg" viewBox="0 0 218.67 256.55"><defs><style>.cls-1,.cls-2{fill:#fff;}.cls-1,.cls-2,.cls-4,.cls-5,.cls-6,.cls-7,.cls-8,.cls-9{stroke:#4058a6;stroke-width:3px;}.cls-1,.cls-3,.cls-4,.cls-7,.cls-8{stroke-miterlimit:10;}.cls-2,.cls-5,.cls-6,.cls-9{stroke-linecap:round;stroke-linejoin:round;}.cls-3,.cls-4,.cls-6{fill:#3d549c;}.cls-3{stroke:#3d549c;}.cls-10,.cls-5,.cls-8{fill:none;}.cls-7,.cls-9{fill:#f5d434;}</style></defs><title>bird</title><g id="图层_2" data-name="图层 2"><g id="图层_3" data-name="图层 3"><path class="cls-1" d="M17.93,100.72S13.59,26.24,50.4,21,92,63.48,92.41,76.9s-8.23,44.6,0,47.64,45,7.36,65,13c0,0,50.67-25.55,58.46-22.09,0,0-5.2,48.5-69.28,65,0,0-66.26,20.35-98.74,0C47.8,180.4,9.7,164.37,17.93,100.72Z"/><path class="cls-2" d="M54.3,24.07s5.63-11.69,13-13.85"/><path class="cls-2" d="M61.71,24.07s1.68-8.22,9-9.52"/><path class="cls-3" d="M40.44,114.14s40.31-14,55.59-9.49a2.06,2.06,0,0,1,1.41,1.46l3.41,13.3a2,2,0,0,1-2,2.53H48.67l7.06,8.92a2.51,2.51,0,0,1,.09,3l-13.23,18.8a2.51,2.51,0,0,1-4.17-.09l-9-13.92a2.51,2.51,0,0,1-.19-2.35l6.4-14.8h-22a2,2,0,0,1-2-2.26l1.58-13A2,2,0,0,1,16,104.6C19.55,105.88,27.33,108.78,40.44,114.14Z"/><path class="cls-4" d="M157.36,137.53l-15.58,44.2s64.56-13,74-66.29C215.82,115.44,205.66,113,157.36,137.53Z"/><path class="cls-5" d="M77.42,183.39l6.33,57s-12.32,1.33-19.31,3.33"/><path class="cls-5" d="M110.73,183.39l15.32,62s-18-1.33-22,0"/><ellipse class="cls-2" cx="42.99" cy="51.58" rx="14.38" ry="11.62" transform="translate(-17.91 79.86) rotate(-75.09)"/><ellipse class="cls-2" cx="59.06" cy="54.09" rx="14.3" ry="11.56" transform="translate(-8.4 97.24) rotate(-75.09)"/><ellipse class="cls-6" cx="36.37" cy="49.82" rx="7.71" ry="4.61" transform="matrix(0.26, -0.97, 0.97, 0.26, -21.13, 72.15)"/><ellipse class="cls-6" cx="52.74" cy="52.41" rx="7.71" ry="4.61" transform="translate(-11.47 89.89) rotate(-75.09)"/><path class="cls-7" d="M49.93,82.71s-10.59.47-19.54.76S28,88.07,28,88.07c14.79,7.31,24.72-2.56,24.72-2.56S54.05,82.53,49.93,82.71Z"/><path class="cls-7" d="M15.41,77.66s2-5.85,12.06-5.67,22.89-2,27.18,5.66c1.43,2.55.42,5-16.29,6.14C32.43,84.17,13,85.51,15.41,77.66Z"/><path class="cls-2" d="M74.09,141.55S85.6,171,119.86,158.86c0,0,13.71,5.42,18.13,2.55,3.79-2.48,5.29-3.74-9.6-12.86s-41.93-17.34-41.93-17.34"/><polyline class="cls-8" points="130.2 162.25 161.09 196.92 152.43 203.7 111.75 162.25"/><polygon class="cls-9" points="130.92 196.59 153.96 177.93 197.27 226.73 170.57 244.59 130.92 196.59"/><circle class="cls-1" cx="174.93" cy="243.76" r="6.6"/><rect class="cls-10" width="218.67" height="256.55"/></g></g></svg>