<svg xmlns="http://www.w3.org/2000/svg" viewBox="0 0 207.35 243.15"><defs><style>.cls-1,.cls-4{fill:#fff;}.cls-1,.cls-2,.cls-3,.cls-4,.cls-5,.cls-6,.cls-7,.cls-8{stroke:#b28a4b;stroke-width:3px;}.cls-1,.cls-3,.cls-6,.cls-7{stroke-miterlimit:10;}.cls-2,.cls-7{fill:none;}.cls-2,.cls-4,.cls-5,.cls-8{stroke-linecap:round;stroke-linejoin:round;}.cls-3,.cls-5{fill:#3d549c;}.cls-6,.cls-8{fill:#f5d434;}</style></defs><title>bird-alt</title><g id="图层_2" data-name="图层 2"><g id="图层_3" data-name="图层 3"><path class="cls-1" d="M7.73,92S3.4,17.52,40.21,12.33s41.57,42.43,42,55.86-8.23,44.6,0,47.63,45,7.36,64.95,13c0,0,50.66-25.55,58.46-22.08,0,0-5.2,48.5-69.29,65,0,0-66.25,20.35-98.73,0C37.61,171.68-.49,155.66,7.73,92Z"/><path class="cls-2" d="M44.11,15.36S49.74,3.67,57.1,1.5"/><path class="cls-2" d="M51.52,15.36s1.68-8.23,9-9.53"/><path class="cls-3" d="M30.25,105.43s40.31-14,55.58-9.49a2,2,0,0,1,1.42,1.45l3.41,13.31a2,2,0,0,1-2,2.52H38.48l7.06,8.92a2.52,2.52,0,0,1,.09,3L32.4,144a2.52,2.52,0,0,1-4.17-.09l-8.95-13.92a2.54,2.54,0,0,1-.19-2.36l6.4-14.79h-22a2,2,0,0,1-2-2.27l1.58-13a2,2,0,0,1,2.68-1.66C9.36,97.17,17.14,100.06,30.25,105.43Z"/><path class="cls-3" d="M147.17,128.81,131.59,173s64.56-13,74-66.28C205.63,106.73,195.47,104.26,147.17,128.81Z"/><path class="cls-2" d="M67.23,174.68l6.33,56.95S61.24,233,54.25,235"/><path class="cls-2" d="M100.54,174.68l15.32,61.95s-18-1.34-22,0"/><ellipse class="cls-4" cx="32.8" cy="42.87" rx="14.38" ry="11.62" transform="translate(-17.06 63.53) rotate(-75.09)"/><ellipse class="cls-4" cx="48.87" cy="45.37" rx="14.3" ry="11.56" transform="translate(-7.55 80.92) rotate(-75.09)"/><ellipse class="cls-5" cx="26.18" cy="41.1" rx="7.71" ry="4.61" transform="matrix(0.26, -0.97, 0.97, 0.26, -20.27, 55.83)"/><ellipse class="cls-5" cx="42.55" cy="43.69" rx="7.71" ry="4.61" transform="translate(-10.62 73.57) rotate(-75.09)"/><path class="cls-6" d="M39.74,74s-10.59.48-19.54.76-2.38,4.6-2.38,4.6c14.8,7.31,24.73-2.55,24.73-2.55S43.86,73.82,39.74,74Z"/><path class="cls-6" d="M5.22,68.94s2-5.85,12.06-5.66,22.89-2.05,27.18,5.66c1.42,2.54.42,5-16.29,6.13C22.24,75.45,2.84,76.8,5.22,68.94Z"/><path class="cls-4" d="M63.9,132.84s11.51,29.43,45.77,17.3c0,0,13.71,5.43,18.12,2.55,3.8-2.47,5.29-3.74-9.6-12.85s-41.92-17.35-41.92-17.35"/><polyline class="cls-7" points="120.01 153.53 150.9 188.21 142.24 194.99 101.56 153.53"/><polygon class="cls-8" points="120.73 187.88 143.77 169.22 187.08 218.01 160.38 235.87 120.73 187.88"/><circle class="cls-1" cx="164.73" cy="235.05" r="6.6"/></g></g></svg>