<svg xmlns="http://www.w3.org/2000/svg" viewBox="0 0 448.27 267.34"><defs><style>.cls-1,.cls-5,.cls-6{fill:#fff;}.cls-1,.cls-10,.cls-11,.cls-2,.cls-3,.cls-4,.cls-5,.cls-6,.cls-7,.cls-8,.cls-9{stroke:#ae874a;stroke-width:3px;}.cls-1,.cls-2,.cls-5,.cls-7,.cls-8,.cls-9{stroke-miterlimit:10;}.cls-2{fill:none;}.cls-3{fill:#ebcd3c;}.cls-10,.cls-11,.cls-3,.cls-4,.cls-5,.cls-6{stroke-linecap:round;}.cls-10,.cls-11,.cls-3,.cls-4,.cls-6{stroke-linejoin:round;}.cls-4,.cls-7{fill:#f5d434;}.cls-8{fill:#c71b1e;}.cls-9{fill:#4058a6;}.cls-10{fill:#fdfdfe;}.cls-11{fill:#3d549c;}</style></defs><title>boy-alt</title><g id="图层_2" data-name="图层 2"><g id="图层_1-2" data-name="图层 1"><circle class="cls-1" cx="221.67" cy="99.15" r="81.53"/><line class="cls-2" x1="93.18" y1="5.49" x2="140.14" y2="46.7"/><line class="cls-2" x1="76.77" y1="68.41" x2="126.39" y2="77.1"/><line class="cls-2" x1="176.67" y1="185.25" x2="119.08" y2="260.72"/><line class="cls-2" x1="203.25" y1="196.42" x2="194.39" y2="222.99"/><line class="cls-2" x1="133.25" y1="60.38" x2="0.61" y2="1.37"/><path class="cls-3" d="M413,163.11s10.42,21,15.89,19.6-29.7,6.32-30.82.07S413,163.11,413,163.11Z"/><ellipse class="cls-1" cx="329.84" cy="138.24" rx="93.32" ry="86.05" transform="translate(-20.3 65.41) rotate(-10.99)"/><path class="cls-2" d="M352.24,176.23s-6.23,0-23.1.65"/><path class="cls-4" d="M286.92,56.92s14.67,60.64,62.33,57.75c0,0,27.73-6.72,17.82-25,0,0-4.18,21.42,36,19.59,0,0,46.12-11.84-4-44.64C399.08,64.67,330.57,30,286.92,56.92Z"/><path class="cls-2" d="M270.65,121.51s20.54.46,26.92-6.37"/><path class="cls-2" d="M383.23,101.6s-20.55.46-26.92-6.38"/><path class="cls-1" d="M237.4,151s-20.93-6.78-17.59,19.43,29.07,12.17,29.07,12.17S238.13,160.14,237.4,151Z"/><path class="cls-5" d="M226.48,168.26s2.15-10.21,9.22-6.58"/><path class="cls-5" d="M229.79,164.53s13.44,5.41,15.08,9.15"/><path class="cls-1" d="M423.45,127.41s17.75-13,22.79,13S419,161.46,419,161.46,425.63,136.34,423.45,127.41Z"/><path class="cls-5" d="M439.23,140.41s-5.24-9-10.81-3.36"/><path class="cls-5" d="M434.92,137.91s-12.95,8.27-13.34,12.33"/><path class="cls-1" d="M240.73,114.77s-19-38.71,28.92-77.44,156.72-46,159,3.64c1.86,39.76,3.91,35.15-7.11,39.76,0,0-51.81-47.06-110.54-26.52C248.56,76.07,240.73,114.77,240.73,114.77Z"/><path class="cls-2" d="M235.7,104.55S321-19.94,430.17,74.9"/><path class="cls-6" d="M329.83,234s25.13,12.07,36.65-5l-.1-11s-24.67,7.19-37.5,6.39C328.88,224.43,329.82,232.65,329.83,234Z"/><path class="cls-7" d="M280.54,68.41s-3.74,68.72-35.67,64.4-22.67-23.11-18.39-28.26S280.54,68.41,280.54,68.41Z"/><circle class="cls-8" cx="264.26" cy="71.91" r="17.83"/><path class="cls-2" d="M405.54,120.88c9.72,11,5.91,26.93-8.52,35.61s-34,6.8-43.71-4.19A20.91,20.91,0,0,1,348.24,142c-1.64-9.19,3.25-19.14,13.58-25.35C376.25,108,395.82,109.89,405.54,120.88Z"/><ellipse class="cls-9" cx="366.12" cy="138.29" rx="13.75" ry="12.1" transform="translate(-22.18 89.43) rotate(-13.52)"/><path class="cls-2" d="M354.73,138.78l6.38-.64Z"/><path class="cls-2" d="M357.22,133.77l1,10.17Z"/><path class="cls-1" d="M405.54,120.88l-56.49,13.47s.6-14.14,23-21.9S405.54,120.88,405.54,120.88Z"/><path class="cls-2" d="M313.91,137.42c9.23,11.41,4.71,27.17-10.08,35.2s-34.26,5.29-43.49-6.12A20.93,20.93,0,0,1,255.73,156c-1.23-9.25,4.09-19,14.69-24.73C285.22,123.27,304.69,126,313.91,137.42Z"/><ellipse class="cls-9" cx="273.76" cy="153.08" rx="13.75" ry="12.1" transform="translate(-24.16 54.99) rotate(-10.99)"/><path class="cls-2" d="M262.35,153.06l6.42-.35Z"/><path class="cls-2" d="M265.06,148.16l.57,10.21Z"/><path class="cls-1" d="M313.91,137.42l-57,11s1.22-14.1,23.94-20.85S313.91,137.42,313.91,137.42Z"/><path class="cls-6" d="M290,162.43s-35.54,14.12-36.15,35.2,14.36,37.49,21.26,32.32c24.14-18.08,38.57-17.73,38.53-27.36,0-11-19.38-2.78-21.88-2.14-2.26.57,24.18-.23,19.27-11.74-3.29-7.71-24.93,0-24.93,0s26.28-3.46,22.89-9.89c-5.87-11.12-28.46.06-28.46.06s27.77-3,21.93-12.43C298.36,159.85,290,162.43,290,162.43Z"/><path class="cls-6" d="M400.56,167.3s-.68,8.31,2.94,7,1.19-7,1.19-7"/><path class="cls-6" d="M389.88,179.16s-1.79,6.05,1.21,6.09c4.08.06,2.92-6.09,2.92-6.09"/><path class="cls-10" d="M313.65,224.43s-33.07,13.62-29.9,24.95l3.17,16.46H430.17s11.15-45.82-50.78-55.61C379.39,210.23,351,228.81,313.65,224.43Z"/><path class="cls-6" d="M253.86,197.63s-18.94,62.68,7.45,68.21h25.61s-7.42-26.27-5-40.7"/><path class="cls-11" d="M318.2,224.43l-4.55,36.29,31-22.73-15.76-13.56S326.15,225.23,318.2,224.43Z"/><path class="cls-11" d="M344.64,238l28.22,22.73,1.91-47.88c-4,2.94-15.06,7-15.06,7Z"/></g></g></svg>