<svg xmlns="http://www.w3.org/2000/svg" viewBox="0 0 461.5 273.88"><defs><style>.cls-1,.cls-10,.cls-5,.cls-6{fill:#fff;}.cls-1,.cls-11,.cls-12,.cls-2,.cls-3,.cls-4,.cls-5,.cls-6,.cls-7,.cls-8,.cls-9{stroke:#4058a6;stroke-width:3px;}.cls-1,.cls-2,.cls-5,.cls-7,.cls-8,.cls-9{stroke-miterlimit:10;}.cls-13,.cls-2{fill:none;}.cls-3{fill:#ebcd3c;}.cls-11,.cls-12,.cls-3,.cls-4,.cls-5,.cls-6{stroke-linecap:round;}.cls-11,.cls-12,.cls-3,.cls-4,.cls-6{stroke-linejoin:round;}.cls-4,.cls-7{fill:#f5d434;}.cls-8{fill:#c71b1e;}.cls-9{fill:#4058a6;}.cls-11{fill:#fdfdfe;}.cls-12{fill:#3d549c;}</style></defs><title>boy</title><g id="图层_2" data-name="图层 2"><g id="图层_1-2" data-name="图层 1"><circle class="cls-1" cx="234.13" cy="105.69" r="81.53"/><line class="cls-2" x1="105.64" y1="12.03" x2="152.6" y2="53.23"/><line class="cls-2" x1="89.23" y1="74.95" x2="138.85" y2="83.64"/><line class="cls-2" x1="189.13" y1="191.79" x2="131.54" y2="267.26"/><line class="cls-2" x1="215.71" y1="202.96" x2="206.85" y2="229.52"/><line class="cls-2" x1="145.71" y1="66.91" x2="13.07" y2="7.91"/><path class="cls-3" d="M425.49,169.64s10.42,21,15.89,19.61-29.7,6.31-30.82.07S425.49,169.64,425.49,169.64Z"/><ellipse class="cls-1" cx="342.3" cy="144.77" rx="93.32" ry="86.05" transform="translate(-21.32 67.9) rotate(-10.99)"/><path class="cls-2" d="M364.7,182.77s-6.23,0-23.09.65"/><path class="cls-4" d="M299.38,63.46s14.67,60.63,62.33,57.75c0,0,27.73-6.73,17.82-24.95,0,0-4.18,21.41,36,19.59,0,0,46.12-11.84-4-44.65C411.54,71.2,343,36.58,299.38,63.46Z"/><path class="cls-2" d="M283.11,128.05s20.54.46,26.92-6.38"/><path class="cls-2" d="M395.69,108.14s-20.55.46-26.92-6.38"/><path class="cls-1" d="M249.86,157.51s-20.93-6.79-17.59,19.43,29.07,12.17,29.07,12.17S250.59,166.67,249.86,157.51Z"/><path class="cls-5" d="M238.94,174.79s2.15-10.21,9.22-6.57"/><path class="cls-5" d="M242.25,171.07s13.44,5.41,15.08,9.15"/><path class="cls-1" d="M435.91,134s17.75-13,22.79,13S431.49,168,431.49,168,438.09,142.88,435.91,134Z"/><path class="cls-5" d="M451.69,147s-5.24-9-10.81-3.36"/><path class="cls-5" d="M447.38,144.45s-12.95,8.27-13.34,12.33"/><path class="cls-1" d="M253.19,121.31s-19-38.72,28.92-77.44,156.72-46,159,3.64C443,87.27,445.06,82.66,434,87.27c0,0-51.81-47.06-110.54-26.52C261,82.6,253.19,121.31,253.19,121.31Z"/><path class="cls-2" d="M248.16,111.09S333.42-13.4,442.63,81.44"/><path class="cls-6" d="M342.29,240.54s25.13,12.07,36.65-5l-.1-11s-24.67,7.19-37.5,6.4C341.34,231,342.28,239.19,342.29,240.54Z"/><path class="cls-7" d="M293,75s-3.74,68.71-35.67,64.4-22.67-23.11-18.39-28.26S293,75,293,75Z"/><circle class="cls-8" cx="276.72" cy="78.45" r="17.83"/><path class="cls-2" d="M418,127.42c9.72,11,5.91,26.93-8.52,35.61s-34,6.79-43.71-4.2a20.83,20.83,0,0,1-5.07-10.26c-1.64-9.18,3.25-19.13,13.58-25.35C388.71,114.55,408.28,116.43,418,127.42Z"/><ellipse class="cls-9" cx="378.58" cy="144.83" rx="13.75" ry="12.1" transform="translate(-23.37 92.52) rotate(-13.52)"/><polygon class="cls-10" points="367.04 143.82 368.5 143.68 368.18 140.45 371.17 140.16 371.49 143.38 373.43 143.19 373.72 146.17 371.79 146.36 372.18 150.33 369.19 150.63 368.8 146.66 367.33 146.81 367.04 143.82"/><path class="cls-1" d="M418,127.42l-56.49,13.46s.6-14.14,23-21.89S418,127.42,418,127.42Z"/><path class="cls-2" d="M326.37,144c9.23,11.41,4.71,27.17-10.08,35.2S282,184.45,272.8,173a21,21,0,0,1-4.61-10.48c-1.23-9.24,4.09-19,14.69-24.72C297.68,129.81,317.15,132.55,326.37,144Z"/><ellipse class="cls-9" cx="286.22" cy="159.62" rx="13.75" ry="12.1" transform="translate(-25.18 57.48) rotate(-10.99)"/><polygon class="cls-10" points="274.73 158.1 276.2 158.02 276.03 154.78 279.02 154.62 279.2 157.85 281.14 157.74 281.31 160.74 279.36 160.85 279.58 164.83 276.59 164.99 276.37 161.01 274.9 161.09 274.73 158.1"/><path class="cls-1" d="M326.37,144l-57,11s1.22-14.1,23.94-20.86S326.37,144,326.37,144Z"/><path class="cls-6" d="M302.47,169s-35.54,14.12-36.15,35.2,14.36,37.49,21.26,32.32c24.14-18.08,38.57-17.73,38.53-27.36-.05-11-19.38-2.78-21.88-2.14-2.26.57,24.19-.23,19.27-11.74-3.29-7.71-24.93,0-24.93,0s26.28-3.46,22.89-9.89c-5.87-11.13-28.46.06-28.46.06s27.77-3,21.93-12.43C310.82,166.38,302.47,169,302.47,169Z"/><path class="cls-6" d="M413,173.84s-.68,8.31,2.94,7,1.19-7,1.19-7"/><path class="cls-6" d="M402.34,185.69s-1.79,6.06,1.21,6.1c4.08.06,2.92-6.1,2.92-6.1"/><path class="cls-11" d="M326.11,231s-33.07,13.62-29.9,24.95l3.17,16.46H442.63s11.15-45.82-50.78-55.61C391.85,216.77,363.41,235.34,326.11,231Z"/><path class="cls-6" d="M266.32,204.17s-18.94,62.68,7.45,68.21h25.61s-7.42-26.27-5-40.71"/><path class="cls-12" d="M330.66,231l-4.55,36.29,31-22.73L341.34,231S338.61,231.77,330.66,231Z"/><path class="cls-12" d="M357.1,244.53l28.22,22.73,1.91-47.88c-4,2.94-15.06,7-15.06,7Z"/><rect class="cls-13" width="461.5" height="272.38"/></g></g></svg>