<svg xmlns="http://www.w3.org/2000/svg" viewBox="0 0 317.33 249.34"><defs><style>.cls-1,.cls-2{fill:#fff;}.cls-1,.cls-2,.cls-3,.cls-4,.cls-5,.cls-6{stroke:#ae874a;stroke-width:3px;}.cls-1,.cls-3{stroke-miterlimit:10;}.cls-2,.cls-4,.cls-5,.cls-6{stroke-linecap:round;stroke-linejoin:round;}.cls-3{fill:#4058a6;}.cls-4{fill:none;}.cls-5{fill:#f5d434;}.cls-6{fill:#3d549c;}</style></defs><title>cat-alt</title><g id="图层_2" data-name="图层 2"><g id="图层_2-2" data-name="图层 2"><path class="cls-1" d="M44.51,15.11s6.31-.52,7.65,4.42c.91,3.34-.85,13.29-6.68,16,0,0-11.48,1.7-9.14-12.75S44.51,15.11,44.51,15.11Z"/><path class="cls-1" d="M32.42,7.14C40.22,6.57,48.63,11,47.3,20.73s-6,9.77-6,9.77-8.22,2.29-8.88-7"/><path class="cls-2" d="M26.28,48.83c3-13.17,14.59-13.25,14.59-13.25L36,19.83,19.87,34.33Z"/><path class="cls-2" d="M140.58,247.84H256.43c-10.3-4.09-11.79-8.19-11.79-8.19.6-14.47,42.8-78.76,70.54-80,6.73-.29-40.93-1.38-58.41-4s-13.37-12.29-13.37-12.29c3.61-14.47,36.21-60.49,36.21-60.49-44.47-1.81-62.1,7.84-68.74-4.82S227.15,1.5,227.15,1.5C209.07,2.1,154,43,154,43c-11.1-6.78-23.51-31.81-23.51-31.81-20.13,31.35-17.8,94.05-17.8,94.05l-2.47,121.12Z"/><path class="cls-2" d="M170.27,177.51c.21-5.61.43-9.35.43-9.35S181.76,74,185.12,48.25c0,0-21.63-2.66-49.51,29.54,0,0-13-4.32-43.74-.48,0,0-21.66-28.32-47.6-29.06,0,0,4.31,105.8,7.75,118.7,0,0-.58,2.22-1.49,6h0c-52.2-50.9-21.46-133-21.46-133l.57-11.1C34.17,30.67,40,25.1,40.5,23.06c1.66-6.53.38-10.9-4.85-15.11-3.14-2.53-7.55-3.66-13.5-1.06-15.87,6.92-7.33,33-7.33,33-41.51,72,27.23,171.73,27.23,171.73-2.52,13.39-4.52,27-4.52,36.26H178s.78-12.48-4.68-21.84c11.16,10.81,9.54,21.84,9.54,21.84h22.3C206.7,212.56,170.27,177.51,170.27,177.51Z"/><ellipse class="cls-1" cx="75.67" cy="126.66" rx="30.76" ry="23.55" transform="translate(-27.46 21.15) rotate(-13.49)"/><path class="cls-3" d="M70.17,103.76s-4.39,37,0,46.86c0,0,10.16,1.59,18.35-3.59,0,0,3.85-26.43,0-43.27C88.52,103.76,78.67,100.67,70.17,103.76Z"/><path class="cls-1" d="M58.61,148l-4.19,5.41Z"/><path class="cls-1" d="M64,150.73l-2.08,5Z"/><path class="cls-1" d="M70.17,150.62v0Z"/><polygon class="cls-2" points="106.2 140.08 110.18 145.17 115.11 140.08 106.2 140.08"/><path class="cls-2" d="M110.18,145.17v0Z"/><path class="cls-4" d="M103.89,148s7.23,3.29,13.44,0"/><ellipse class="cls-1" cx="147.32" cy="128.28" rx="23.55" ry="30.76" transform="translate(-11.79 241.61) rotate(-76.51)"/><path class="cls-3" d="M152.82,105.38s4.4,37,0,46.86c0,0-10.16,1.58-18.34-3.6,0,0-3.86-26.43,0-43.26C134.48,105.38,144.33,102.29,152.82,105.38Z"/><path class="cls-1" d="M164.38,149.63l4.2,5.41Z"/><path class="cls-1" d="M159,152.34l2.08,5Z"/><path class="cls-1" d="M152.82,152.24v0Z"/><path class="cls-2" d="M74.5,96.21s10.56-1.12,15.73,2.23"/><path class="cls-2" d="M148.5,98.62s-10.57-1.12-15.74,2.23"/><polygon class="cls-5" points="54.42 68.94 54.42 82.23 68.22 78.69 54.42 68.94"/><polygon class="cls-5" points="169.34 73.01 167.72 86.2 154.45 81 169.34 73.01"/><path class="cls-6" d="M50.67,159.53s42.92,10.12,59.94,24.29c0,0,51.34-19.18,60.09-15.66l4.64,12.54L113,187.18l9.62,19.11-12.44,17.57-10.81-18.8,9.07-17.88L50.53,172.9Z"/></g></g></svg>