<svg xmlns="http://www.w3.org/2000/svg" viewBox="0 0 353 265.58"><defs><style>.cls-1,.cls-2{fill:#fff;}.cls-1,.cls-2,.cls-3,.cls-4,.cls-5,.cls-6{stroke:#4058a6;stroke-width:3px;}.cls-1,.cls-3{stroke-miterlimit:10;}.cls-2,.cls-4,.cls-5,.cls-6{stroke-linecap:round;stroke-linejoin:round;}.cls-3{fill:#4058a6;}.cls-4,.cls-7{fill:none;}.cls-5{fill:#f5d434;}.cls-6{fill:#3d549c;}</style></defs><title>cat</title><g id="图层_2" data-name="图层 2"><g id="图层_2-2" data-name="图层 2"><path class="cls-1" d="M66.3,31.35s6.3-.51,7.65,4.42c.91,3.34-.85,13.29-6.69,16,0,0-11.48,1.7-9.14-12.74S66.3,31.35,66.3,31.35Z"/><path class="cls-1" d="M54.21,23.38C62,22.81,70.42,27.21,69.09,37s-6,9.77-6,9.77-8.22,2.29-8.88-7"/><path class="cls-2" d="M48.07,65.07c3-13.17,14.59-13.25,14.59-13.25L57.81,36.07,41.66,50.57Z"/><path class="cls-2" d="M162.36,264.08H278.22c-10.3-4.09-11.79-8.19-11.79-8.19.6-14.47,42.8-78.76,70.54-80,6.73-.29-40.93-1.38-58.41-4s-13.38-12.29-13.38-12.29c3.62-14.47,36.21-60.49,36.21-60.49-44.47-1.81-62.1,7.84-68.73-4.82s16.28-76.57,16.28-76.57c-18.09.6-73.19,41.46-73.19,41.46-11.1-6.78-23.51-31.81-23.51-31.81-20.13,31.35-17.8,94.05-17.8,94.05L132,242.56Z"/><path class="cls-2" d="M192.06,193.75c.21-5.61.43-9.35.43-9.35s11-94.17,14.42-119.91c0,0-21.63-2.66-49.51,29.54,0,0-13-4.32-43.74-.48,0,0-21.66-28.32-47.6-29.06,0,0,4.3,105.8,7.74,118.7,0,0-.57,2.22-1.49,5.95h0c-52.19-50.9-21.46-133-21.46-133L51.43,45C56,46.91,61.77,41.34,62.29,39.3c1.65-6.53.38-10.9-4.85-15.11-3.15-2.53-7.55-3.65-13.5-1.06-15.87,6.92-7.33,33-7.33,33-41.51,72,27.23,171.73,27.23,171.73-2.52,13.39-4.53,27-4.53,36.26H199.74s.78-12.48-4.68-21.84c11.16,10.81,9.54,21.84,9.54,21.84h22.29C228.49,228.8,192.06,193.75,192.06,193.75Z"/><ellipse class="cls-1" cx="97.46" cy="142.9" rx="30.76" ry="23.55" transform="translate(-30.65 26.68) rotate(-13.49)"/><path class="cls-3" d="M92,120s-4.39,37,0,46.86c0,0,10.16,1.59,18.35-3.59,0,0,3.85-26.43,0-43.27C110.31,120,100.46,116.91,92,120Z"/><path class="cls-1" d="M80.4,164.26l-4.2,5.41Z"/><path class="cls-1" d="M85.83,167l-2.08,5Z"/><path class="cls-1" d="M92,166.86v0Z"/><polygon class="cls-2" points="127.99 156.32 131.97 161.41 136.89 156.32 127.99 156.32"/><path class="cls-2" d="M132,161.41v0Z"/><path class="cls-4" d="M125.68,164.26s7.22,3.29,13.44,0"/><ellipse class="cls-1" cx="169.11" cy="144.52" rx="23.55" ry="30.76" transform="translate(-10.87 275.24) rotate(-76.51)"/><path class="cls-3" d="M174.61,121.62s4.39,37,0,46.86c0,0-10.16,1.58-18.35-3.6,0,0-3.85-26.43,0-43.26C156.26,121.62,166.11,118.53,174.61,121.62Z"/><path class="cls-1" d="M186.17,165.87l4.2,5.41Z"/><path class="cls-1" d="M180.74,168.58l2.08,5Z"/><path class="cls-1" d="M174.61,168.48v0Z"/><path class="cls-2" d="M96.29,112.45s10.56-1.11,15.73,2.23"/><path class="cls-2" d="M170.28,114.86s-10.56-1.12-15.73,2.23"/><polygon class="cls-5" points="76.2 85.18 76.2 98.47 90.01 94.93 76.2 85.18"/><polygon class="cls-5" points="191.13 89.25 189.5 102.44 176.24 97.24 191.13 89.25"/><path class="cls-6" d="M72.45,175.77s42.93,10.12,60,24.29c0,0,51.34-19.18,60.09-15.66l4.64,12.54-62.34,6.48,9.62,19.11L132,240.1l-10.81-18.8,9.07-17.88L72.31,189.14Z"/><rect class="cls-7" width="353" height="264.08"/></g></g></svg>