<?xml version="1.0" encoding="utf-8"?>
<svg width="135px" height="32px" viewBox="0 0 135 32" version="1.1" xmlns:xlink="http://www.w3.org/1999/xlink" xmlns="http://www.w3.org/2000/svg">
  <desc>Created with Lunacy</desc>
  <g id="编组-5">
    <g id="check-here！" fill="#000000" transform="translate(36 13)">
      <path d="M14.7801 16.0508L16.3035 16.0508L16.3035 10.7305Q16.3035 7.20703 13.3894 7.20703Q11.5613 7.20703 10.5691 8.83203L10.5379 8.83203L10.5379 3.26172L9.00663 3.26172L9.00663 16.0508L10.5379 16.0508L10.5379 11.1523Q10.5379 9.99609 11.1941 9.23438Q11.8504 8.47266 12.8426 8.47266Q14.7801 8.47266 14.7801 11.082L14.7801 16.0508ZM42.1515 16.0508L40.0656 16.0508L36.3703 11.8867L36.339 11.8867L36.339 16.0508L34.8078 16.0508L34.8078 3.26172L36.339 3.26172L36.339 11.3711L36.3703 11.3711L39.8781 7.41016L41.8468 7.41016L37.9406 11.5664L42.1515 16.0508ZM53.6425 16.0508L55.1659 16.0508L55.1659 10.7305Q55.1659 7.20703 52.2519 7.20703Q50.4238 7.20703 49.4316 8.83203L49.4003 8.83203L49.4003 3.26172L47.8691 3.26172L47.8691 16.0508L49.4003 16.0508L49.4003 11.1523Q49.4003 9.99609 50.0566 9.23438Q50.7128 8.47266 51.705 8.47266Q53.6425 8.47266 53.6425 11.082L53.6425 16.0508ZM83.6768 12.6133L83.8487 3.95703L82.2706 3.95703L82.4424 12.6133L83.6768 12.6133ZM4.94531 16.2539Q6.34375 16.2539 7.33594 15.6602L7.33594 14.2539Q6.34375 14.9883 5.22656 14.9883Q3.90625 14.9883 3.12891 14.1445Q2.35156 13.3008 2.35156 11.8086Q2.35156 10.293 3.17578 9.38281Q4 8.47266 5.3125 8.47266Q6.42969 8.47266 7.34375 9.14453L7.34375 7.62891Q6.5 7.20703 5.3125 7.20703Q3.25 7.20703 2.01953 8.50781Q0.789063 9.80859 0.789063 11.9336Q0.789062 13.8477 1.92969 15.0508Q3.07031 16.2539 4.94531 16.2539ZM25.5133 12.1211L19.4664 12.1211Q19.5054 13.5039 20.2242 14.2578Q20.9429 15.0117 22.232 15.0117Q23.6851 15.0117 24.8961 14.082L24.8961 15.4492Q23.7554 16.2539 21.8726 16.2539Q19.9976 16.2539 18.9468 15.0664Q17.8961 13.8789 17.8961 11.7695Q17.8961 9.78516 19.0484 8.49609Q20.2008 7.20703 21.9117 7.20703Q23.607 7.20703 24.5601 8.29688Q25.5132 9.38672 25.5133 11.3477L25.5133 12.1211ZM30.7464 16.2539Q32.1449 16.2539 33.1371 15.6602L33.1371 14.2539Q32.1449 14.9883 31.0277 14.9883Q29.7074 14.9883 28.93 14.1445Q28.1527 13.3008 28.1527 11.8086Q28.1527 10.293 28.9769 9.38281Q29.8011 8.47266 31.1136 8.47266Q32.2308 8.47266 33.1449 9.14453L33.1449 7.62891Q32.3011 7.20703 31.1136 7.20703Q29.0511 7.20703 27.8207 8.50781Q26.5902 9.80859 26.5902 11.9336Q26.5902 13.8477 27.7308 15.0508Q28.8714 16.2539 30.7464 16.2539ZM64.3757 12.1211L58.3288 12.1211Q58.3679 13.5039 59.0866 14.2578Q59.8054 15.0117 61.0944 15.0117Q62.5476 15.0117 63.7585 14.082L63.7585 15.4492Q62.6179 16.2539 60.7351 16.2539Q58.8601 16.2539 57.8093 15.0664Q56.7585 13.8789 56.7585 11.7695Q56.7585 9.78516 57.9108 8.49609Q59.0632 7.20703 60.7741 7.20703Q62.4694 7.20703 63.4226 8.29688Q64.3757 9.38672 64.3757 11.3477L64.3757 12.1211ZM78.7952 12.1211L72.7483 12.1211Q72.7874 13.5039 73.5061 14.2578Q74.2249 15.0117 75.5139 15.0117Q76.9671 15.0117 78.178 14.082L78.178 15.4492Q77.0374 16.2539 75.1546 16.2539Q73.2796 16.2539 72.2288 15.0664Q71.178 13.8789 71.178 11.7695Q71.178 9.78516 72.3303 8.49609Q73.4827 7.20703 75.1936 7.20703Q76.8889 7.20703 77.8421 8.29688Q78.7952 9.38672 78.7952 11.3477L78.7952 12.1211ZM69.6089 8.65234Q70.2808 8.65234 70.6636 8.92578L70.6636 7.37891Q70.3823 7.26172 69.8589 7.26172Q68.2495 7.26172 67.5933 9.16797L67.562 9.16797L67.562 7.41016L66.0308 7.41016L66.0308 16.0508L67.562 16.0508L67.562 11.6758Q67.562 10.3164 68.1401 9.48438Q68.7183 8.65234 69.6089 8.65234ZM23.982 10.8945Q23.9742 9.72266 23.4273 9.08203Q22.8804 8.44141 21.8883 8.44141Q20.9742 8.44141 20.3062 9.12109Q19.6383 9.80078 19.4664 10.8945L23.982 10.8945ZM62.8444 10.8945Q62.8366 9.72266 62.2898 9.08203Q61.7429 8.44141 60.7507 8.44141Q59.8366 8.44141 59.1687 9.12109Q58.5007 9.80078 58.3288 10.8945L62.8444 10.8945ZM77.2639 10.8945Q77.2561 9.72266 76.7093 9.08203Q76.1624 8.44141 75.1702 8.44141Q74.2561 8.44141 73.5882 9.12109Q72.9202 9.80078 72.7483 10.8945L77.2639 10.8945ZM83.794 14.5508Q83.4971 14.2617 83.0831 14.2617Q82.669 14.2617 82.3721 14.5508Q82.0752 14.8398 82.0752 15.2539Q82.0752 15.6758 82.3721 15.9609Q82.669 16.2461 83.0831 16.2461Q83.4971 16.2461 83.794 15.9609Q84.0909 15.6758 84.0909 15.2539Q84.0909 14.8398 83.794 14.5508Z" />
    </g>
    <path d="M12.4344 3.10585L0 16.1174L8.06676 16.1174L8.06676 32L23.6584 32L23.6584 16.1174L32 16.1174L16 0L12.4344 3.10585Z" id="路径-2" fill="#000000" stroke="none" />
  </g>
</svg>