<?xml version="1.0" encoding="UTF-8"?>
<svg width="251px" height="69px" viewBox="0 0 251 69" version="1.1" xmlns="http://www.w3.org/2000/svg" xmlns:xlink="http://www.w3.org/1999/xlink">
    <!-- Generator: Sketch 55.1 (78136) - https://sketchapp.com -->
    <title>入学报到 2</title>
    <desc>Created with Sketch.</desc>
    <g id="页面1" stroke="none" stroke-width="1" fill="none" fill-rule="evenodd">
        <g id="桌面端HD" transform="translate(-252.000000, -71.000000)" fill="#FFFFFF" fill-rule="nonzero">
            <g id="入学报到-2" transform="translate(251.792000, 70.320000)">
                <path d="M58.096,49.96 L46.864,59.752 L30.304,35.776 L6.112,58.024 L1,52.696 L22.672,24.616 L14.608,12.88 L20.296,7.768 L58.096,49.96 Z M95.8825,53.416 L98.3305,68.248 L82.8505,68.248 L83.1385,65.944 L79.3945,65.368 L79.3945,60.328 L84.0025,59.68 L85.0105,52.768 L68.5945,51.76 L68.5225,46.72 L86.0185,45.352 L86.6665,40.96 L94.6585,32.752 L73.6345,36.064 L73.6345,25.408 L102.9385,26.488 L106.9705,37.144 L94.1545,42.616 L94.4425,44.704 L112.4425,43.336 L112.5865,54.424 L95.8825,53.416 Z M105.9625,27.856 L107.7625,23.68 L70.9705,21.52 L68.0905,27.712 L62.8345,27.208 L61.6825,14.032 L74.5705,14.032 L73.7065,15.76 L98.1145,15.184 L104.5945,1.072 L114.7465,8.704 L106.3945,14.968 L117.7705,14.68 L117.9865,27.856 L105.9625,27.856 Z M75.5065,13.6 L66.0745,5.752 L68.3785,1 L80.8345,3.088 L75.5065,13.6 Z M92.4265,13.6 L83.0665,5.752 L85.3705,1 L97.8265,3.088 L92.4265,13.6 Z M139.717,39.88 L140.869,57.088 L127.765,57.088 L127.909,53.92 L125.245,53.776 L125.173,49.24 L128.125,48.88 L128.413,43.408 L123.373,44.992 L122.725,35.632 L128.845,34.552 L129.277,25.84 L122.581,25.48 L122.509,19.288 L129.637,18.712 L130.069,10.216 L137.701,10.216 L138.205,18.064 L145.981,17.416 L146.125,26.776 L138.781,26.416 L139.213,32.752 L145.189,31.672 L146.125,37.864 L139.717,39.88 Z M164.197,29.368 L162.109,29.224 L162.109,24.616 L165.853,24.184 L167.149,20.08 L157.789,18.496 L158.509,58.384 L147.781,58.312 L149.509,11.224 L157.645,11.224 L157.645,12.376 L175.069,11.728 L175.213,31.096 L163.621,31.096 L164.197,29.368 Z M162.469,41.968 L166.861,45.064 L169.741,39.88 L160.093,41.176 L160.093,33.04 L172.837,34.192 L177.589,42.4 L172.549,49.024 L178.309,52.984 L172.621,59.68 L168.013,54.856 L164.413,59.536 L160.021,57.088 L163.837,50.392 L159.373,45.64 L162.469,41.968 Z M213.3595,35.272 L211.4155,30.376 L186.5035,33.4 L184.9915,25.336 L191.7595,13.168 L183.5515,12.592 L183.5515,6.112 L221.2075,4.6 L221.3515,15.184 L205.2235,14.104 L194.1355,23.752 L209.1835,24.688 L206.9515,18.856 L212.0635,16.408 L223.6555,28.936 L213.3595,35.272 Z M196.5115,40.528 L195.7195,34.12 L209.3995,34.264 L208.6795,39.736 L217.8235,39.088 L217.8235,49.096 L207.5995,48.52 L206.9515,53.632 L221.2795,54.352 L221.2075,60.976 L185.2795,62.92 L185.2795,52.48 L198.1675,53.2 L197.5195,47.944 L187.2955,47.368 L187.4395,41.104 L196.5115,40.528 Z M250.0075,57.736 L236.7595,57.736 L236.9755,54.28 L233.5195,53.92 L233.4475,48.664 L237.3355,47.944 L239.6395,12.088 L248.2795,12.016 L250.0075,57.736 Z M234.7435,20.8 L232.8715,45.064 L226.6795,45.064 L224.9515,20.8 L234.7435,20.8 Z" id="入学报到"></path>
            </g>
        </g>
    </g>
</svg>