<?xml version="1.0" encoding="UTF-8"?>
<svg width="236px" height="69px" viewBox="0 0 236 69" version="1.1" xmlns="http://www.w3.org/2000/svg" xmlns:xlink="http://www.w3.org/1999/xlink">
    <!-- Generator: Sketch 55.1 (78136) - https://sketchapp.com -->
    <title>开学生活 2</title>
    <desc>Created with Sketch.</desc>
    <g id="页面1" stroke="none" stroke-width="1" fill="none" fill-rule="evenodd">
        <g id="桌面端HD" transform="translate(-252.000000, -71.000000)" fill="#FFFFFF" fill-rule="nonzero">
            <g id="开学生活-2" transform="translate(251.720000, 70.320000)">
                <path d="M43.768,17.92 L45.28,35.272 L58.312,36.28 L58.24,42.544 L46,43.048 L47.8,63.352 L32.464,63.352 L33.904,43.48 L21.808,43.912 L17.272,59.248 L9.928,57.736 L11.368,44.272 L1,44.632 L1.144,31.816 L12.592,32.752 L13.744,21.736 L27.928,23.32 L24.832,33.688 L34.624,34.48 L35.848,18.064 L10.864,18.568 L10.216,12.88 L48.376,4.96 L49.096,17.776 L43.768,17.92 Z M96.268,53.416 L98.716,68.248 L83.236,68.248 L83.524,65.944 L79.78,65.368 L79.78,60.328 L84.388,59.68 L85.396,52.768 L68.98,51.76 L68.908,46.72 L86.404,45.352 L87.052,40.96 L95.044,32.752 L74.02,36.064 L74.02,25.408 L103.324,26.488 L107.356,37.144 L94.54,42.616 L94.828,44.704 L112.828,43.336 L112.972,54.424 L96.268,53.416 Z M106.348,27.856 L108.148,23.68 L71.356,21.52 L68.476,27.712 L63.22,27.208 L62.068,14.032 L74.956,14.032 L74.092,15.76 L98.5,15.184 L104.98,1.072 L115.132,8.704 L106.78,14.968 L118.156,14.68 L118.372,27.856 L106.348,27.856 Z M75.892,13.6 L66.46,5.752 L68.764,1 L81.22,3.088 L75.892,13.6 Z M92.812,13.6 L83.452,5.752 L85.756,1 L98.212,3.088 L92.812,13.6 Z M124.504,59.752 L124.504,54.136 L145.96,52.84 L145.384,43.48 L128.752,44.56 L128.968,33.472 L144.808,34.696 L144.232,25.624 L132.784,24.976 L129.112,32.104 L122.488,29.872 L125.944,9.568 L138.976,12.952 L136.096,18.496 L143.8,17.92 L143.08,6.328 L157.696,6.328 L156.976,17.056 L170.944,16.048 L171.088,27.136 L156.4,26.344 L155.824,35.56 L169.72,36.64 L169.72,41.896 L155.392,42.832 L154.744,52.336 L173.824,51.184 L173.968,62.2 L124.504,59.752 Z M199.972,34.696 L207.604,34.696 L207.748,35.992 L213.292,35.776 L212.716,30.592 L197.524,31.24 L197.74,21.016 L211.708,22.024 L211.06,16.336 L200.404,15.904 L199.828,10.072 L231.724,7.048 L232.3,17.128 L222.868,16.768 L222.148,22.744 L235.324,23.68 L235.324,29.656 L221.212,30.232 L220.636,35.488 L233.668,34.984 L234.46,59.248 L222.004,59.248 L222.364,57.88 L198.1,58.024 L199.972,34.696 Z M186.868,58.6 L179.308,47.728 L193.564,41.464 L197.236,47.08 L186.868,58.6 Z M178.444,37.36 L182.548,23.824 L195.148,32.104 L192.844,38.368 L178.444,37.36 Z M178.444,21.448 L182.548,7.912 L195.148,16.192 L192.844,22.456 L178.444,21.448 Z M209.26,48.16 L224.236,51.328 L225.964,45.424 L208.612,43.048 L209.26,48.16 Z" id="开学生活"></path>
            </g>
        </g>
    </g>
</svg>