<svg xmlns="http://www.w3.org/2000/svg" viewBox="0 0 255.5 332.5"><defs><style>.cls-1{fill:#3b549c;}.cls-2{fill:#fff;}.cls-3{fill:none;}</style></defs><title>eyes</title><g id="图层_2" data-name="图层 2"><g id="图层_2-2" data-name="图层 2"><ellipse class="cls-1" cx="89.07" cy="135.15" rx="17.54" ry="28.22"/><polygon class="cls-2" points="93.47 130.08 89.5 130.08 89.5 123.87 85.5 123.87 85.5 130.08 82.34 130.08 82.34 134.08 85.5 134.08 85.5 141.58 89.5 141.58 89.5 134.08 93.47 134.08 93.47 130.08"/><path class="cls-1" d="M167.24,107.58c-9.67,0-17.54,12.66-17.54,28.23S157.57,164,167.24,164s17.55-12.66,17.55-28.22S176.92,107.58,167.24,107.58Z"/><polygon class="cls-2" points="171.59 128.9 167.62 128.9 167.62 122.69 163.62 122.69 163.62 128.9 160.46 128.9 160.46 132.9 163.62 132.9 163.62 140.41 167.62 140.41 167.62 132.9 171.59 132.9 171.59 128.9"/><rect class="cls-3" width="255.5" height="332.5"/></g></g></svg>