<svg xmlns="http://www.w3.org/2000/svg" viewBox="0 0 120.81 16"><defs><style>.cls-1{fill:#ffffff;}</style></defs><title>fence</title><g id="图层_2" data-name="图层 2"><g id="图层_1-2" data-name="图层 1"><path id="_" data-name="|||||||||||||||||||||" class="cls-1" d="M0,0H1.41V16H0ZM6,0H7.38V16H6Zm6,0h1.41V16H11.94Zm6,0h1.41V16H17.91Zm6,0h1.41V16H23.88Zm6,0h1.41V16H29.85Zm6,0h1.41V16H35.82Zm6,0H43.2V16H41.79Zm6,0h1.41V16H47.76Zm6,0h1.41V16H53.73Zm6,0h1.41V16H59.7Zm6,0h1.41V16H65.67Zm6,0h1.41V16H71.64Zm6,0H79V16H77.61Zm6,0H85V16H83.58Zm6,0H91V16H89.55Zm6,0h1.41V16H95.52Zm6,0h1.41V16h-1.41Zm6,0h1.4V16h-1.4Zm6,0h1.4V16h-1.4Zm6,0h1.4V16h-1.4Z"/></g></g></svg>