<svg xmlns="http://www.w3.org/2000/svg" viewBox="0 0 405.49 280.96"><defs><style>.cls-1,.cls-6{fill:#f5d434;}.cls-1,.cls-2,.cls-3,.cls-4,.cls-5,.cls-6,.cls-7,.cls-8{stroke:#ae874a;stroke-width:3px;}.cls-1,.cls-2,.cls-4,.cls-5,.cls-7,.cls-8{stroke-miterlimit:10;}.cls-2,.cls-3,.cls-7{fill:#fff;}.cls-3,.cls-6,.cls-7{stroke-linecap:round;}.cls-3,.cls-6{stroke-linejoin:round;}.cls-4{fill:none;}.cls-5{fill:#4058a6;}.cls-8{fill:#c71b1e;}</style></defs><title>资源 1</title><g id="图层_2" data-name="图层 2"><g id="图层_2-2" data-name="图层 2"><path class="cls-1" d="M364.41,173.39s48.39,5.67,37.42,27.87-39.09-.21-32.72-8,32.6,18.49,16.48,28.92S353.5,207.76,354.18,197C354.18,197,362.91,183,364.41,173.39Z"/><ellipse class="cls-2" cx="287.06" cy="148.57" rx="93.32" ry="86.05" transform="translate(-17.59 40.57) rotate(-7.84)"/><path class="cls-3" d="M260.39,259.61H286c1.05-8.66,1.64-16.63.08-24.85,0,0-7.77.76-25.71-3.07C260.39,231.69,261.42,247.34,260.39,259.61Z"/><path class="cls-4" d="M270.63,158.06c2.36,17.11-7.59,32.61-22.23,34.63s-28.4-10.22-30.76-27.33a35.63,35.63,0,0,1,.79-13.89c2.87-10.92,10.95-19.29,21.44-20.74C254.5,128.72,268.27,141,270.63,158.06Z"/><path class="cls-4" d="M265,143.14s-16.5,13.53-46.57,8.33"/><ellipse class="cls-5" cx="230.91" cy="167.21" rx="9.42" ry="13.75"/><path class="cls-4" d="M357.6,126.68s-17.06,12.67-47.13,7.47"/><path class="cls-2" d="M362.67,140.74c2.36,17.11-7.59,32.61-22.23,34.63S312,165.15,309.68,148a35.84,35.84,0,0,1,.79-13.89c2.87-10.92,11-19.29,21.44-20.73C346.54,111.4,360.31,123.64,362.67,140.74Z"/><ellipse class="cls-5" cx="322.86" cy="149.57" rx="9.48" ry="13.75"/><path class="cls-4" d="M285.34,197.26s13.73,6.13,18.93-4.36"/><path class="cls-6" d="M244.14,67.25s14.67,60.64,62.33,57.75c0,0,27.73-6.72,17.82-25,0,0-4.18,21.42,36,19.6,0,0,46.12-11.85-4-44.65C356.3,75,287.79,40.37,244.14,67.25Z"/><path class="cls-3" d="M144.22,259.61h61.93l15.33-48.49c-36.12-28.35-26-76.63-26-76.63-19.13-6.66-41.21-21.29-41.21-21.29-27.93,38.52-39.67,85.5-35.2,120.13C120.62,245.38,131.15,253.78,144.22,259.61Z"/><path class="cls-4" d="M253.79,121.47s-20.54-.45-26.92,6.38"/><path class="cls-4" d="M313.19,106.75s20.21-3.72,27.59,2"/><path class="cls-2" d="M194.62,161.3s-20.93-6.78-17.59,19.43S206.1,192.9,206.1,192.9,195.35,170.47,194.62,161.3Z"/><path class="cls-7" d="M183.7,178.59s2.15-10.21,9.22-6.58"/><path class="cls-7" d="M187,174.86s13.44,5.41,15.08,9.15"/><path class="cls-2" d="M380.67,137.75s17.75-13,22.79,12.94-27.21,21.1-27.21,21.1S382.85,146.68,380.67,137.75Z"/><path class="cls-7" d="M396.45,150.74s-5.24-9-10.82-3.35"/><path class="cls-7" d="M392.14,148.24s-12.95,8.27-13.34,12.33"/><path class="cls-3" d="M111.8,16.32s19.55-2,22.9-14.82l24,19.55s-4.47,8.38-7.27,8.38C151.46,29.43,144.76,33.38,111.8,16.32Z"/><path class="cls-3" d="M97.28,32.78s46.92,5,54.18-3.35c0,0,11.73,19,7.27,51.4,0,0-5.21,17.87-40.59,12.84C118.14,93.67,105.66,47.31,97.28,32.78Z"/><path class="cls-3" d="M168.29,77.37s-1.62,7.95-12.19,7.86c0,0,1.45-37.52-4.64-55.8,0,0,5.11-1.38,7.27-8.38C158.73,21.05,169,33.45,168.29,77.37Z"/><path class="cls-3" d="M111.8,16.32s6.7,12.56,6.34,16.26"/><path class="cls-3" d="M180.76,86.3s10.49,9.94,17.12,10.49l-9.57,34.92s-17.52-8.23-25.78-13.37C162.53,118.34,175.24,92.37,180.76,86.3Z"/><path class="cls-3" d="M202.09,76.21,180.76,86.3s10.49,10.49,17.12,10.49Z"/><path class="cls-2" d="M198,125.1s-19-38.71,28.92-77.44,156.72-46,159,3.65c1.86,39.75,3.91,35.14-7.11,39.75,0,0-51.81-47.05-110.54-26.52C205.78,86.4,198,125.1,198,125.1Z"/><path class="cls-4" d="M223.58,163.74h0Z"/><path class="cls-4" d="M226.55,159v0Z"/><path class="cls-4" d="M314.82,146.66h0Z"/><path class="cls-4" d="M317.79,141.92v0Z"/><path class="cls-3" d="M154.26,113.2s12.35-13.85,18.06-13.66"/><path class="cls-3" d="M146,199s34.25,16.22,43.77,17.28c0,0-14.26,36.45-35.49,26.2C142.44,236.82,132.27,239.06,146,199Z"/><path class="cls-3" d="M148.32,206.34l5.94,3.17Z"/><path class="cls-3" d="M159.89,211.49l8.43,3.18Z"/><path class="cls-3" d="M174.09,216.32l9.61,3.26Z"/><path class="cls-4" d="M192.92,114.88S278.18-9.6,387.39,85.23"/><path class="cls-1" d="M221.48,88.68s10.11,67.71-26.86,72.62C194.62,161.3,187.31,120,221.48,88.68Z"/><circle class="cls-8" cx="219.93" cy="94.04" r="17.83"/><path class="cls-1" d="M206.1,192.9s-45.89,16.48-29.43,35,37.64-10.57,29.43-16.39-26.53,26.48-8.22,32.26,27.11-22.43,23.6-32.63C221.48,211.12,210.1,201.79,206.1,192.9Z"/><path class="cls-3" d="M332.34,259.61H357.8c1.81-13,3.29-43.27-2.33-53.92,0,0-10.85,10.63-21.9,17.36C333.57,223.05,334.27,245.8,332.34,259.61Z"/><path class="cls-3" d="M202.09,250.91s18.65-33.38,39.63-31.23S270.64,236.37,271,245s-14.15,34.93-23.36,34.46c-10.22-.52.64-16.62,1.59-19,.87-2.17-7.94,21.32-18.71,14.95-7.21-4.27,2.72-22.06,2.72-22.06s-3.64,23.41-17.36,18.57.34-22.36.34-22.36-3.2,21.28-11.74,14.26C198.43,258.85,202.09,250.91,202.09,250.91Z"/><path class="cls-3" d="M287.05,244.34s27.3,14.8,46.52-8.07V223.05s-21.67,12.59-47.47,11.71C286.1,234.76,287,243,287.05,244.34Z"/><path class="cls-3" d="M28.53,149.62s40.69-18.69,43.62-25.41L54.23,84.26S21.52,106.72,7.45,111C7.45,111,27.93,142.76,28.53,149.62Z"/><path class="cls-3" d="M19.46,152s4.49,2.8,9.07-2.35c0,0-6.43-17.67-21.08-38.63,0,0-2,6.06-5.95,7.18C1.5,118.17,16.94,147.73,19.46,152Z"/><path class="cls-3" d="M22.65,152.72s35.14-7.77,47.91-22l1.59-6.47s-16,13.8-43.62,25.41A6.64,6.64,0,0,1,22.65,152.72Z"/><path class="cls-3" d="M235.1,190.61l-3,6Z"/><path class="cls-3" d="M240.33,192.38,238.18,199Z"/><path class="cls-3" d="M329,174.42l-3,6.05Z"/><path class="cls-3" d="M334.21,176.19l-2.15,6.66Z"/></g></g></svg>