<svg xmlns="http://www.w3.org/2000/svg" viewBox="0 0 430.5 292.55"><defs><style>.cls-1,.cls-6{fill:#f5d434;}.cls-1,.cls-2,.cls-3,.cls-4,.cls-5,.cls-6,.cls-7,.cls-9{stroke:#4058a6;stroke-width:3px;}.cls-1,.cls-2,.cls-4,.cls-5,.cls-7,.cls-9{stroke-miterlimit:10;}.cls-2,.cls-3,.cls-7,.cls-8{fill:#fff;}.cls-3,.cls-6,.cls-7{stroke-linecap:round;}.cls-3,.cls-6{stroke-linejoin:round;}.cls-10,.cls-4{fill:none;}.cls-5{fill:#4058a6;}.cls-9{fill:#c71b1e;}</style></defs><title>girl</title><g id="图层_2" data-name="图层 2"><g id="图层_2-2" data-name="图层 2"><path class="cls-1" d="M387.62,180.8S436,186.46,425,208.67s-39.09-.21-32.72-8,32.6,18.5,16.48,28.93-32.09-14.44-31.41-25.2C377.39,204.4,386.12,190.43,387.62,180.8Z"/><ellipse class="cls-2" cx="310.27" cy="155.97" rx="93.32" ry="86.05" transform="translate(-18.38 43.81) rotate(-7.84)"/><path class="cls-3" d="M283.6,267h25.64c1.05-8.67,1.64-16.63.07-24.85,0,0-7.77.76-25.71-3.07C283.6,239.1,284.64,254.75,283.6,267Z"/><path class="cls-4" d="M293.84,165.46c2.36,17.11-7.59,32.61-22.22,34.63s-28.41-10.22-30.77-27.33a35.79,35.79,0,0,1,.79-13.88c2.87-10.93,11-19.3,21.44-20.74C277.71,136.12,291.48,148.36,293.84,165.46Z"/><path class="cls-4" d="M288.21,150.55s-16.5,13.52-46.57,8.33"/><ellipse class="cls-5" cx="254.12" cy="174.61" rx="9.42" ry="13.75"/><path class="cls-4" d="M380.82,134.09s-17.06,12.67-47.14,7.47"/><path class="cls-2" d="M385.88,148.15c2.36,17.11-7.59,32.61-22.22,34.62s-28.41-10.21-30.76-27.32a35.64,35.64,0,0,1,.78-13.89c2.88-10.92,11-19.29,21.44-20.74C369.75,118.81,383.53,131,385.88,148.15Z"/><ellipse class="cls-5" cx="346.07" cy="156.97" rx="9.48" ry="13.75"/><path class="cls-4" d="M308.55,204.67s13.74,6.13,18.93-4.36"/><path class="cls-6" d="M267.35,74.66s14.68,60.63,62.33,57.75c0,0,27.73-6.73,17.82-25,0,0-4.18,21.41,36,19.59,0,0,46.12-11.85-4-44.65C379.51,82.4,311,47.78,267.35,74.66Z"/><path class="cls-3" d="M167.43,267h61.93l15.34-48.49c-36.12-28.36-26-76.63-26-76.63-19.13-6.67-41.21-21.29-41.21-21.29-27.93,38.52-39.66,85.49-35.19,120.13C143.83,252.79,154.36,261.19,167.43,267Z"/><path class="cls-4" d="M277,128.88s-20.54-.46-26.92,6.38"/><path class="cls-4" d="M336.4,114.15s20.21-3.72,27.6,2"/><path class="cls-2" d="M217.83,168.71s-20.92-6.79-17.59,19.43,29.07,12.17,29.07,12.17S218.56,177.87,217.83,168.71Z"/><path class="cls-7" d="M206.91,186s2.16-10.21,9.23-6.57"/><path class="cls-7" d="M210.23,182.27s13.44,5.41,15.07,9.15"/><path class="cls-2" d="M403.88,145.15s17.76-13,22.79,12.95-27.21,21.1-27.21,21.1S406.06,154.08,403.88,145.15Z"/><path class="cls-7" d="M419.66,158.15s-5.24-9-10.81-3.36"/><path class="cls-7" d="M415.35,155.65S402.4,163.91,402,168"/><path class="cls-3" d="M135,23.73s19.56-2,22.91-14.83l24,19.56s-4.47,8.38-7.26,8.38C174.68,36.84,168,40.79,135,23.73Z"/><path class="cls-3" d="M120.49,40.19s46.92,5,54.19-3.35c0,0,11.73,19,7.26,51.39,0,0-5.2,17.88-40.59,12.85C141.35,101.08,128.87,54.71,120.49,40.19Z"/><path class="cls-3" d="M191.5,84.77s-1.62,8-12.19,7.87c0,0,1.45-37.53-4.63-55.8,0,0,5.1-1.39,7.26-8.38C181.94,28.46,192.2,40.86,191.5,84.77Z"/><path class="cls-3" d="M135,23.73s6.71,12.55,6.34,16.25"/><path class="cls-3" d="M204,93.7s10.49,9.94,17.12,10.49l-9.57,34.92s-17.51-8.22-25.78-13.36C185.74,125.75,198.45,99.78,204,93.7Z"/><path class="cls-3" d="M225.3,83.61,204,93.7s10.49,10.49,17.12,10.49Z"/><path class="cls-2" d="M221.16,132.51s-19-38.72,28.92-77.44,156.73-46,159,3.64C411,98.47,413,93.86,402,98.47c0,0-51.81-47.06-110.54-26.52C229,93.8,221.16,132.51,221.16,132.51Z"/><polygon class="cls-8" points="253.21 169.64 251.27 169.64 251.27 166.4 248.27 166.4 248.27 169.64 246.79 169.64 246.79 172.64 248.27 172.64 248.27 176.63 251.27 176.63 251.27 172.64 253.21 172.64 253.21 169.64"/><polygon class="cls-8" points="344.45 152.56 342.5 152.56 342.5 149.32 339.5 149.32 339.5 152.56 338.03 152.56 338.03 155.56 339.5 155.56 339.5 159.54 342.5 159.54 342.5 155.56 344.45 155.56 344.45 152.56"/><path class="cls-3" d="M177.47,120.61s12.35-13.86,18.06-13.66"/><path class="cls-3" d="M169.19,206.45s34.26,16.21,43.77,17.28c0,0-14.26,36.44-35.49,26.2C165.66,244.22,155.48,246.46,169.19,206.45Z"/><path class="cls-3" d="M171.53,213.74l5.94,3.18Z"/><path class="cls-3" d="M183.11,218.9l8.43,3.17Z"/><path class="cls-3" d="M197.3,223.73l9.61,3.25Z"/><path class="cls-4" d="M216.14,122.28S301.4-2.2,410.6,92.64"/><path class="cls-1" d="M244.7,96.08s10.1,67.72-26.87,72.63C217.83,168.71,210.52,127.4,244.7,96.08Z"/><circle class="cls-9" cx="243.14" cy="101.44" r="17.83"/><path class="cls-1" d="M229.31,200.31s-45.89,16.47-29.43,35,37.64-10.57,29.43-16.38-26.52,26.48-8.22,32.26,27.12-22.43,23.61-32.63C244.7,218.53,233.31,209.2,229.31,200.31Z"/><path class="cls-3" d="M355.55,267H381c1.81-13,3.29-43.28-2.33-53.92,0,0-10.84,10.63-21.9,17.36C356.78,230.46,357.48,253.21,355.55,267Z"/><path class="cls-3" d="M225.3,258.32s18.65-33.39,39.63-31.24,28.92,16.7,29.26,25.31S280,287.33,270.83,286.86c-10.23-.52.63-16.63,1.58-19,.87-2.17-7.94,21.33-18.71,14.95-7.21-4.27,2.72-22.06,2.72-22.06s-3.64,23.42-17.35,18.57.33-22.35.33-22.35-3.2,21.28-11.74,14.26C221.65,266.26,225.3,258.32,225.3,258.32Z"/><path class="cls-3" d="M310.26,251.74s27.3,14.8,46.52-8.06V230.46S335.11,243,309.31,242.17C309.31,242.17,310.25,250.39,310.26,251.74Z"/><path class="cls-3" d="M51.74,157s40.69-18.7,43.62-25.42l-17.91-40S44.73,114.12,30.66,118.4C30.66,118.4,51.14,150.16,51.74,157Z"/><path class="cls-3" d="M42.67,159.37s4.49,2.81,9.07-2.34c0,0-6.43-17.67-21.08-38.63,0,0-2,6-5.95,7.17C24.71,125.57,40.15,155.13,42.67,159.37Z"/><path class="cls-3" d="M45.86,160.12s35.14-7.76,47.91-22l1.59-6.47s-16,13.81-43.62,25.42A6.64,6.64,0,0,1,45.86,160.12Z"/><path class="cls-3" d="M258.32,198l-3,6Z"/><path class="cls-3" d="M263.54,199.78l-2.15,6.67Z"/><path class="cls-3" d="M352.2,181.83l-3,6Z"/><path class="cls-3" d="M357.42,183.59l-2.15,6.67Z"/><rect class="cls-10" width="430.5" height="292.55"/></g></g></svg>