<svg xmlns="http://www.w3.org/2000/svg" viewBox="0 0 255.5 332.5"><defs><style>.cls-1,.cls-2,.cls-3,.cls-5,.cls-7{fill:#fff;}.cls-1,.cls-10,.cls-11,.cls-3,.cls-5,.cls-6{stroke:#3f58a6;}.cls-1,.cls-10,.cls-3,.cls-4,.cls-5,.cls-6,.cls-7,.cls-8,.cls-9{stroke-miterlimit:10;}.cls-1,.cls-11,.cls-2,.cls-4,.cls-6,.cls-8{stroke-width:3px;}.cls-12,.cls-2,.cls-7,.cls-8,.cls-9{stroke:#3b549c;}.cls-11,.cls-12,.cls-2{stroke-linecap:round;stroke-linejoin:round;}.cls-10,.cls-12,.cls-3,.cls-7,.cls-9{stroke-width:4px;}.cls-12,.cls-13,.cls-4,.cls-8,.cls-9{fill:none;}.cls-4{stroke:#e9579a;}.cls-5{stroke-width:2px;}.cls-10,.cls-11,.cls-6{fill:#f5cf1f;}</style></defs><title>hako</title><g id="图层_2" data-name="图层 2"><g id="图层_2-2" data-name="图层 2"><rect class="cls-1" x="95.89" y="23.99" width="4.79" height="102.7"/><rect class="cls-1" x="162.45" y="25.99" width="4.79" height="102.7"/><path class="cls-1" d="M59.66,99.14H189.83a35.58,35.58,0,0,1,16,3.51l20.54,10.67c.91.47.52,1.67-.53,1.67l-199.43-.2c-1,0-1.42-1.13-.58-1.63l16.63-9.89C46.93,100.63,53.15,99.14,59.66,99.14Z"/><path class="cls-2" d="M39.6,109.72l175.85.81a30.45,30.45,0,0,1,16.39,4.33,22.28,22.28,0,0,1,10.36,19.66q3.9,73.41,7.82,146.84c.44,8.28-10.21,15.14-23.5,15.14H31.85c-13.14,0-23.73-6.71-23.51-14.9q2-76.65,4.09-153.31A21.32,21.32,0,0,1,21.24,115C28.9,109.45,37.69,109.64,39.6,109.72Z"/><circle class="cls-3" cx="44.52" cy="308.67" r="17.19"/><line class="cls-4" x1="43.8" y1="104.72" x2="206.16" y2="104.42"/><circle class="cls-5" cx="44.56" cy="308.73" r="8.07"/><circle class="cls-3" cx="211.43" cy="310.21" r="17.19"/><circle class="cls-5" cx="211.48" cy="310.27" r="8.07"/><path class="cls-1" d="M57.54,133.5H50.12c-4.35,0-7.9,2.44-8,5.49L38.7,261.39c-.09,3.13,3.51,5.71,8,5.71H212.21c4.53,0,8.15-2.65,8-5.83l-6.87-122.39c-.17-3-3.69-5.38-8-5.38H197"/><path class="cls-6" d="M10.8,189.5l29.54,13.6,1-62.65a6,6,0,0,1,5.72-5.91l21.54-1,1-23.8H34.76a22.21,22.21,0,0,0-22.2,21.53Z"/><path class="cls-7" d="M196.51,135.48c0,16-1.07,34.66-6.21,45.14S176,193.4,168.12,193.4c-8.27,0-18.93-.81-24.12-12.34-4.65-10.31-6-33-6-45.58,0-32,14.47-57.93,30.15-57.93S196.51,103.49,196.51,135.48Z"/><line class="cls-7" x1="149.58" y1="186.91" x2="142" y2="193.4"/><path class="cls-7" d="M158.81,191.4l-5.91,7.3Z"/><path class="cls-7" d="M150.24,68.64,158.91,82Z"/><path class="cls-7" d="M168,77.82l.28-12.62Z"/><path class="cls-7" d="M178.59,80.21l5.66-12.28Z"/><path class="cls-7" d="M118.34,134.82c0,16-.89,34.88-6,45.36S97.79,192.74,90,192.74c-8.27,0-18.93-1-24.12-12.56-4.65-10.31-6-32.79-6-45.36,0-32,14.47-57.92,30.15-57.92S118.34,102.83,118.34,134.82Z"/><line class="cls-8" x1="72.41" y1="186.25" x2="64.83" y2="192.74"/><path class="cls-9" d="M80.64,190.74,74.77,198Z"/><path class="cls-7" d="M72.06,68.25l8.68,13.34Z"/><path class="cls-7" d="M89.87,77.44l.28-12.63Z"/><path class="cls-7" d="M100.42,79.82l5.66-12.27Z"/><path class="cls-5" d="M147,240.46l8.68.11Z"/><path class="cls-10" d="M84.48,231.92h87.76s0,45.07-41.69,45.07C97.51,277,85.44,255.77,84.48,231.92Z"/><path class="cls-5" d="M148.14,237.68l8.68.11Z"/><path class="cls-5" d="M115.56,269.46l8.64,2.23Z"/><path class="cls-5" d="M131.69,271.77l8.63-1Z"/><path class="cls-5" d="M147,268.69l6.76-3.18Z"/><path class="cls-5" d="M109.08,267.67l-5.8-3Z"/><path class="cls-5" d="M110.13,237.52l8.68.11Z"/><path class="cls-5" d="M122.37,237.63l8.69.11Z"/><polygon class="cls-11" points="214.61 162.07 230.85 191.79 230.85 179.52 247.33 228.52 230.85 220.48 230.85 228.52 217.18 218.04 214.61 162.07"/><path class="cls-5" d="M135.17,237.68l8.68.11Z"/><path class="cls-2" d="M247.85,240.62l-50.2-40.42a11.14,11.14,0,0,0-3.93-2.09l-.33-.1a6.39,6.39,0,0,0-5.74,1,2.87,2.87,0,0,0-.61,4h0c9.64,12.31,12.55,15.72,12.76,15.6.45-.25-13.45-14.77-15.14-16.41a6.1,6.1,0,0,0-2.34-1.48,7.08,7.08,0,0,0-5.89.64,3.19,3.19,0,0,0-1.71,3.59h0q3.43,7.89,6.88,15.76l-9.17-12.49A9.17,9.17,0,0,0,170.5,206a5.29,5.29,0,0,0-6.61,2.21l.13.79,4.11,15.5q-2.4-5-4.79-9.91L162,212.81c-1.41-1.44-5.08-1.57-6.1,1l0,4.86s0,12.49,7.1,28.4c4.43,9.85,16.51,22.93,25.7,32,7,6.92,19.35,9.15,29.6,5.31,11.17-4.19,27-9.38,30.78-18.54Z"/><path class="cls-12" d="M117.17,196s10.24-4.32,19.09,0"/><path class="cls-5" d="M201.54,102.9a2.43,2.43,0,0,1-2.74-3.78c5.27-6.74,13.83-15.93,17.49-10S209.23,100.09,201.54,102.9Z"/><path class="cls-5" d="M205.56,91.54a9.07,9.07,0,0,1,6.44,6"/><path class="cls-5" d="M39.73,133.9a.2.2,0,0,0-.39,0C38.59,139,36.29,149.59,27,151a.18.18,0,0,0,0,.35c3.43.7,11.26,3.85,12.49,18a.2.2,0,0,0,.39,0c.81-4.53,3.63-16.66,10.69-18.1a.19.19,0,0,0,0-.38C47.61,150.11,40.65,146.93,39.73,133.9Z"/><path class="cls-2" d="M200.49,237.46s-1.48,26-22.65,26c0,0,21.17,0,22.65,26,0,0,4-26,19.7-26C220.19,263.5,200.67,262.71,200.49,237.46Z"/><rect class="cls-1" x="76.24" y="13.58" width="108.52" height="20.83" rx="10.41" ry="10.41"/><path class="cls-2" d="M9.43,240.89l45.33-41.37a10.22,10.22,0,0,1,3.7-2.14l.32-.1a5.63,5.63,0,0,1,5.41,1,3.1,3.1,0,0,1,.57,4.07L50.08,221.67,67,201.51A5.35,5.35,0,0,1,69.21,200a6.23,6.23,0,0,1,5.56.65,3.38,3.38,0,0,1,1.61,3.69q-4,8.9-8,17.81,5.1-7.23,10.18-14.47a9.35,9.35,0,0,1,1.83-2.17,4.81,4.81,0,0,1,6.23,2.26l-.12.81-2.85,13.57,3.49-7.84,1.3-1.86c1.33-1.48,4.79-1.61,5.76,1l0,5s0,12.81-6.69,29.11c-5,12.14-20.44,29-29.05,37.88a14.92,14.92,0,0,1-15.07,3.33C32,285,13.27,278.12,8.75,266.17Z"/><polyline class="cls-5" points="105.02 237.51 96.34 237.41 105.02 237.51"/><rect class="cls-13" width="255.5" height="332.5"/></g></g></svg>