<?xml version="1.0" encoding="utf-8"?>
<svg width="111px" height="13px" viewBox="0 0 111 13" version="1.1" xmlns:xlink="http://www.w3.org/1999/xlink" xmlns="http://www.w3.org/2000/svg">
  <desc>Created with Lunacy</desc>
  <g id="…查看更多…" fill="#ffffff">
    <path d="M21.7832 3.00146L17.6133 3.00146L17.6133 3.65576L21.1338 3.65576Q19.791 4.80322 17.2715 5.59912Q17.5254 5.92139 17.7305 6.22412Q18.2773 6.01416 18.7754 5.78467L18.7754 9.98389L19.5176 9.98389L19.5176 9.53467L24.7813 9.53467L24.7813 9.97412L25.5234 9.97412L25.5234 5.73584Q26.0117 5.9458 26.5391 6.12646Q26.7344 5.81397 26.9883 5.43311Q24.6299 4.83252 23.0869 3.65576L26.7051 3.65576L26.7051 3.00146L22.4766 3.00146L22.4766 1.95654L21.7832 1.95654L21.7832 3.00146ZM78.4707 1.97607L79.457 1.97607Q78.959 2.51318 78.4414 2.98193L83.041 2.98193L83.041 3.646Q79.6816 6.35107 74.8867 7.6792Q74.6816 7.28857 74.4375 6.99561Q76.4492 6.46826 78.0508 5.79443Q77.6992 5.40381 77.123 4.8374L77.6699 4.40771Q78.2461 4.96436 78.7344 5.4917Q80.5215 4.68115 81.8691 3.66553L77.6602 3.66553Q76.6445 4.53467 75.248 5.32568Q75.0332 5.03271 74.7109 4.71045Q76.9473 3.51904 78.4707 1.97607ZM36.4277 5.29639L39.4063 5.29639Q39.6504 4.90576 39.8506 4.49561L37.0723 4.49561L37.0723 3.87061L40.1338 3.87061Q40.2949 3.48975 40.4219 3.09424Q38.6885 3.15283 37.043 3.18701Q36.9844 2.87451 36.9063 2.52295Q41.5645 2.45459 45.1191 2.22998L45.2363 2.89404Q43.1855 2.9917 41.2422 3.06494Q41.1104 3.47021 40.9492 3.87061L45.1973 3.87061L45.1973 4.49561L40.6709 4.49561Q40.4756 4.90088 40.251 5.29639L45.9395 5.29639L45.9395 5.92139L39.8604 5.92139Q39.6162 6.29248 39.3379 6.65381L44.7285 6.65381L44.7285 11.5562L44.0254 11.5562L44.0254 11.1753L39.1328 11.1753L39.1328 11.5562L38.4297 11.5562L38.4297 7.72803Q37.6631 8.54346 36.7207 9.30029Q36.5254 8.99756 36.252 8.63623Q37.917 7.42529 38.9912 5.92139L36.4277 5.92139L36.4277 5.29639ZM58.1816 10.0229Q57.0879 10.6431 55.3008 10.9409Q55.5547 11.2925 55.75 11.6343Q57.7959 11.1802 58.9189 10.438Q60.7402 11.2827 64.6172 11.3901Q64.7734 11.0386 65.0176 10.6089Q61.5215 10.6187 59.5635 9.90088Q60.1152 9.27588 60.3691 8.11865L63.1035 8.11865L63.1035 8.59717L63.8457 8.59717L63.8457 4.02686L60.6084 4.02686Q60.6133 3.61182 60.6133 3.12842L64.6172 3.12842L64.6172 2.44482L55.6523 2.44482L55.6523 3.12842L59.8613 3.12842Q59.8564 3.60693 59.8516 4.02686L56.4238 4.02686L56.4238 8.11865L57.1807 8.11865L56.668 8.50928Q57.3467 9.44678 58.1816 10.0229ZM21.7832 3.81689L21.7832 5.4917L22.4766 5.4917L22.4766 3.83643Q23.7168 4.96924 25.5186 5.73584L18.8828 5.73584Q20.6602 4.90088 21.7832 3.81689ZM59.832 5.74561L57.166 5.74561L57.166 4.69092L59.8467 4.69092Q59.8418 5.27686 59.832 5.74561ZM60.6035 4.69092L63.1035 4.69092L63.1035 5.74561L60.5889 5.74561Q60.5986 5.28174 60.6035 4.69092ZM79.9453 5.90186L80.9121 5.90186Q80.4629 6.34131 79.9844 6.73193L83.5391 6.73193L83.5391 7.44482Q80.3945 10.853 75.1504 11.6733Q74.9746 11.3218 74.7109 10.9409Q77.0938 10.5991 78.9785 9.77881Q78.6953 9.40771 78.168 8.87061L78.7539 8.44092Q79.252 8.9585 79.6621 9.46631Q81.3027 8.62646 82.4844 7.41553L79.1348 7.41553Q77.416 8.70459 75.5117 9.5249Q75.3359 9.2417 75.043 8.86084Q77.7578 7.76709 79.9453 5.90186ZM57.166 6.3999L59.8223 6.3999Q59.8027 6.97607 59.7393 7.45459L57.166 7.45459L57.166 6.3999ZM63.1035 7.45459L60.4814 7.45459Q60.5498 6.96631 60.5742 6.3999L63.1035 6.3999L63.1035 7.45459ZM19.5176 6.40967L24.7813 6.40967L24.7813 7.29834L19.5176 7.29834L19.5176 6.40967ZM44.0254 7.27881L39.1328 7.27881L39.1328 7.9624L44.0254 7.9624L44.0254 7.27881ZM24.7813 8.86084L19.5176 8.86084L19.5176 7.9624L24.7813 7.9624L24.7813 8.86084ZM59.6123 8.11865Q59.3633 9.11963 58.8359 9.57373Q57.8936 9.05615 57.2197 8.11865L59.6123 8.11865ZM39.1328 9.25146L44.0254 9.25146L44.0254 8.56787L39.1328 8.56787L39.1328 9.25146ZM0.910645 9.32227Q0.732422 9.50537 0.732422 9.76904Q0.732422 10.0278 0.908203 10.2036Q1.08398 10.3794 1.34277 10.3794Q1.61133 10.3794 1.79199 10.2012Q1.97266 10.0229 1.97266 9.76904Q1.97266 9.51025 1.78467 9.32471Q1.59668 9.13916 1.34766 9.13916Q1.08887 9.13916 0.910645 9.32227ZM3.62061 9.32227Q3.4375 9.50537 3.4375 9.76904Q3.4375 10.0229 3.61816 10.2012Q3.79883 10.3794 4.0625 10.3794Q4.32617 10.3794 4.50684 10.2012Q4.6875 10.0229 4.6875 9.76904Q4.6875 9.51514 4.50439 9.32715Q4.32129 9.13916 4.06738 9.13916Q3.80371 9.13916 3.62061 9.32227ZM6.34766 9.32227Q6.16211 9.50537 6.16211 9.76904Q6.16211 10.0181 6.33789 10.1987Q6.51367 10.3794 6.78223 10.3794Q7.0459 10.3794 7.22656 10.2012Q7.40723 10.0229 7.40723 9.76904Q7.40723 9.51514 7.22412 9.32715Q7.04102 9.13916 6.78223 9.13916Q6.5332 9.13916 6.34766 9.32227ZM94.0454 9.32227Q93.8672 9.50537 93.8672 9.76904Q93.8672 10.0278 94.043 10.2036Q94.2188 10.3794 94.4775 10.3794Q94.7461 10.3794 94.9268 10.2012Q95.1074 10.0229 95.1074 9.76904Q95.1074 9.51025 94.9194 9.32471Q94.7314 9.13916 94.4824 9.13916Q94.2236 9.13916 94.0454 9.32227ZM96.7554 9.32227Q96.5723 9.50537 96.5723 9.76904Q96.5723 10.0229 96.7529 10.2012Q96.9336 10.3794 97.1973 10.3794Q97.4609 10.3794 97.6416 10.2012Q97.8223 10.0229 97.8223 9.76904Q97.8223 9.51514 97.6392 9.32715Q97.4561 9.13916 97.2021 9.13916Q96.9385 9.13916 96.7554 9.32227ZM99.4824 9.32227Q99.2969 9.50537 99.2969 9.76904Q99.2969 10.0181 99.4727 10.1987Q99.6484 10.3794 99.917 10.3794Q100.181 10.3794 100.361 10.2012Q100.542 10.0229 100.542 9.76904Q100.542 9.51514 100.359 9.32715Q100.176 9.13916 99.917 9.13916Q99.668 9.13916 99.4824 9.32227ZM39.1328 10.5503L44.0254 10.5503L44.0254 9.85693L39.1328 9.85693L39.1328 10.5503ZM26.8906 10.5015L17.3789 10.5015L17.3789 11.2046L26.8906 11.2046L26.8906 10.5015Z" />
  </g>
</svg>
