<?xml version="1.0" encoding="UTF-8"?>
<svg width="251px" height="67px" viewBox="0 0 251 67" version="1.1" xmlns="http://www.w3.org/2000/svg" xmlns:xlink="http://www.w3.org/1999/xlink">
    <!-- Generator: Sketch 55.1 (78136) - https://sketchapp.com -->
    <title>军训相关 2</title>
    <desc>Created with Sketch.</desc>
    <g id="页面1" stroke="none" stroke-width="1" fill="none" fill-rule="evenodd">
        <g id="桌面端HD" transform="translate(-253.000000, -71.000000)" fill="#FFFFFF" fill-rule="nonzero">
            <g id="军训相关-2" transform="translate(252.008000, 70.896000)">
                <path d="M10.576,37.504 L12.448,30.808 L5.392,31.168 L5.536,21.88 L14.896,22.24 L17.272,14.104 L29.8,16.12 L26.344,22.744 L47.224,23.536 L47.224,29.08 L22.312,30.304 L18.928,36.784 L26.128,36.424 L26.416,32.752 L34.048,32.752 L34.336,35.992 L45.208,35.344 L45.208,45.712 L35.2,45.424 L35.632,49.672 L52.552,50.32 L52.552,57.304 L36.352,57.664 L37.216,66.088 L23.68,66.088 L24.328,57.952 L6.616,58.384 L6.76,48.592 L25.048,49.312 L25.408,45.208 L13.096,44.848 L10.576,37.504 Z M38.512,20.8 L42.976,13.168 L12.592,11.944 L13.528,18.496 L1,18.496 L2.584,2.872 L11.296,2.872 L11.656,5.32 L53.488,3.52 L51.688,20.8 L38.512,20.8 Z M57.964,32.392 L57.964,21.592 L62.716,21.952 L59.836,12.16 L73.588,12.52 L70.276,22.456 L74.02,22.744 L75.964,44.128 L79.348,44.272 L79.348,50.032 L76.54,50.176 L76.9,53.992 L62.932,53.992 L66.964,30.16 L57.964,32.392 Z M113.548,11.8 L121.18,11.8 L123.628,57.016 L110.164,56.8 L113.548,11.8 Z M95.188,11.944 L89.068,55.72 L82.156,55.144 L82.084,11.296 L95.188,11.944 Z M109.3,15.544 L106.564,51.76 L98.932,51.76 L96.988,15.544 L109.3,15.544 Z M158.704,11.296 L170.584,11.296 L170.44,12.736 L193.624,11.584 L194.632,57.952 L182.176,57.952 L182.248,56.656 L158.776,56.8 L158.704,11.296 Z M149.272,8.992 L148.696,17.848 L156.328,17.344 L156.328,27.424 L148.048,26.776 L147.688,32.392 L157.192,35.92 L151.432,45.64 L147.112,41.104 L146.104,57.016 L138.616,57.016 L137.824,39.016 L134.512,48.232 L129.04,47.152 L131.704,28.72 L137.464,30.16 L137.32,25.912 L128.608,25.192 L128.608,19 L136.96,18.496 L136.6,8.992 L149.272,8.992 Z M181.168,33.688 L168.784,31.744 L168.352,36.28 L181.024,38.08 L181.024,44.2 L167.704,44.2 L167.416,47.656 L182.824,49.888 L185.416,20.584 L169.936,18.928 L169.36,24.904 L181.168,24.616 L181.168,33.688 Z M231.076,26.488 L226.972,33.544 L249.652,34.264 L249.652,42.256 L221.14,43.408 L209.548,63.136 L202.852,59.248 L209.116,43.912 L199.468,44.272 L199.612,32.608 L213.508,33.112 L216.46,25.768 L202.492,25.12 L202.492,17.848 L212.356,17.344 L203.572,7.84 L207.172,2.152 L222.58,8.632 L216.46,17.128 L229.204,16.408 L233.308,1 L245.764,8.344 L237.412,15.976 L246.124,15.472 L246.34,27.136 L231.076,26.488 Z M243.82,65.152 L222.724,51.328 L224.956,45.928 L250.588,52.48 L243.82,65.152 Z" id="军训相关"></path>
            </g>
        </g>
    </g>
</svg>