<?xml version="1.0" encoding="UTF-8"?>
<svg width="101px" height="94px" viewBox="0 0 101 94" version="1.1" xmlns="http://www.w3.org/2000/svg" xmlns:xlink="http://www.w3.org/1999/xlink">
    <!-- Generator: Sketch 55.1 (78136) - https://sketchapp.com -->
    <title>yinzhang</title>
    <desc>Created with Sketch.</desc>
    <g id="页面1" stroke="none" stroke-width="1" fill="none" fill-rule="evenodd">
        <g id="04-效果展示备份-2" transform="translate(-1470.000000, -408.000000)" fill="#FF2222" fill-rule="nonzero">
            <g id="yinzhang" transform="translate(1470.000000, 408.000000)">
                <path d="M6.78101101,40.1557653 C7.36269099,40.2798939 7.96979689,40.1655654 8.46667307,39.8383262 C8.96354925,39.5110869 9.30878193,38.9982118 9.42523009,38.4143008 C12.3563675,23.9866657 22.5731779,12.1245342 36.3962647,7.09983524 C50.1903212,1.99139511 65.64561,4.43694636 77.1936979,13.5553739 C77.8219727,14.0476366 78.6648378,14.1669373 79.404794,13.8683367 C80.1447503,13.569736 80.6693808,12.8985985 80.7810623,12.1077352 C80.8927438,11.3168719 80.5745092,10.5264337 79.9462344,10.034171 C67.1836879,-0.0413299754 50.104271,-2.74298351 34.8607062,2.90245932 C19.5815238,8.45266817 8.28765129,21.5623518 5.04793248,37.5084842 C4.92558322,38.0897621 5.03966254,38.6958894 5.36492416,39.1927272 C5.69018579,39.6895651 6.1998087,40.0361443 6.78101101,40.1557653 Z M95.218989,53.8450795 C94.6383834,53.7225885 94.0329572,53.8367999 93.536694,54.1624382 C93.0404309,54.4880765 92.6942526,54.9982896 92.5747699,55.580165 C89.6467906,70.0107873 79.429227,81.8762098 65.6037353,86.9010095 C51.8096788,92.0094497 36.35439,89.5638984 24.8063021,80.4454709 C23.8350734,79.6844988 22.4315608,79.8558571 21.6714689,80.8282104 C20.911377,81.8005637 21.082537,83.2057016 22.0537656,83.9666738 C34.8168272,94.0409953 51.8956022,96.7425473 67.1392938,91.0983855 C82.4184762,85.5481766 93.7123487,72.438493 96.9520675,56.4923606 C97.0744168,55.9110827 96.9603375,55.3049554 96.6350758,54.8081175 C96.3098142,54.3112797 95.8001913,53.9647005 95.218989,53.8450795 L95.218989,53.8450795 Z" id="形状"></path>
                <path d="M32.3319346,32.3581364 C32.6925205,32.2249252 33.0123627,31.9994232 33.2599074,31.7038773 C38.2962049,25.7053567 46.0549937,22.7506775 53.776312,23.8908802 C54.557782,24.0066177 55.3412534,23.6940594 55.8316,23.070943 C56.3219466,22.4478266 56.4446731,21.6088184 56.1535497,20.8699646 C55.8624263,20.1311107 55.2016815,19.6046608 54.4202115,19.4889233 C45.1877317,18.1327376 35.9127366,21.6622209 29.8825915,28.8264076 C29.2250732,29.5959437 29.1689027,30.7158357 29.7460809,31.5480738 C30.323259,32.3803119 31.3872678,32.7136307 32.3319346,32.3581364 Z M67.7337799,61.0502565 C62.5893931,67.1708134 54.619172,70.1088417 46.762858,68.7806771 C45.5565533,68.5754516 44.413311,69.3930731 44.2093548,70.6068858 C44.0053987,71.8206985 44.8179627,72.9710563 46.0242674,73.176282 C55.4247139,74.7668223 64.9620409,71.2516585 71.1174085,63.9277261 C71.9070849,62.9893015 71.7912062,61.5844145 70.8585861,60.7898232 C69.9259661,59.9952319 68.529769,60.1118319 67.7400926,61.0502565 L67.7337799,61.0502565 Z M100.351707,36.9824143 L94.5818626,21.1404512 C92.5537719,15.5890958 86.4432583,12.7364436 80.9210935,14.7630129 L6.98628394,42.0259262 C1.46926625,44.0666398 -1.36574099,50.215185 0.648293092,55.7717194 L6.41813735,71.6136826 C8.44622815,77.1650379 14.5567417,80.0176901 20.0789065,77.9911208 L94.0137161,50.7282075 C99.5307338,48.687494 102.365741,42.5389488 100.351707,36.9824143 Z M92.4923457,46.5485717 L18.5575362,73.8051329 C15.3310316,74.9916172 11.7588735,73.3265475 10.5719202,70.0828433 L4.80207594,54.2408802 C3.62355668,50.9924953 5.28151118,47.3973232 8.50765425,46.2055621 L82.4424638,18.9490008 C85.6689684,17.7625166 89.2411265,19.4275863 90.4280798,22.6712904 L96.1979241,38.5132536 C97.3764433,41.7616385 95.7184888,45.3568106 92.4923457,46.5485717 L92.4923457,46.5485717 Z M42.6343261,11.5361816 L39.8440951,12.1269204 C39.7586138,12.1470106 39.6687917,12.1232261 39.604211,12.0634001 L37.5336323,10.0815667 C37.4602843,10.0142534 37.3557105,9.99380935 37.2626495,10.02859 C37.1695885,10.0633706 37.1036337,10.1475481 37.0917405,10.2467195 L36.7824162,13.1051331 C36.7719003,13.1916476 36.7200481,13.2675383 36.6435359,13.308398 L34.1310655,14.6740845 C34.0433611,14.7229322 33.9905346,14.8173751 33.9945411,14.9181617 C33.9985476,15.0189483 34.0587021,15.1088439 34.1500037,15.1504868 L36.7571653,16.3256123 C36.8368818,16.3620517 36.8935796,16.4357422 36.908671,16.5225253 L37.4263157,19.3491787 C37.4641921,19.5651477 37.7356399,19.6413721 37.880833,19.4762193 L39.7999059,17.3482892 C39.8580674,17.2856126 39.942625,17.2548879 40.0271645,17.2657128 L42.8615847,17.6468346 C42.9625229,17.6611652 43.0626879,17.6159972 43.1192329,17.5306518 C43.1757779,17.4453063 43.1786886,17.3348986 43.1267198,17.2466567 L41.7063533,14.7566609 C41.659701,14.6795692 41.6549506,14.5839695 41.6937279,14.5025797 L42.9310249,11.9173034 C42.9780199,11.8247678 42.9673383,11.7131947 42.9036524,11.6313875 C42.8399665,11.5495803 42.7348672,11.5124281 42.6343261,11.5361816 L42.6343261,11.5361816 Z M29.5227653,23.3827178 C29.607222,23.3225362 29.6491599,23.2184086 29.6301698,23.1160431 C29.6111798,23.0136776 29.5347331,22.931786 29.434387,22.9063156 L26.6757197,22.156776 C26.5914838,22.1352443 26.5230838,22.0735386 26.4926502,21.9916232 L25.5457392,19.2793064 C25.512543,19.1828225 25.4275314,19.1138653 25.3267835,19.1017003 C25.2260356,19.0895353 25.1272236,19.1362964 25.0722837,19.2221381 L23.513037,21.6295575 C23.4654754,21.7027528 23.3852824,21.7478455 23.2984038,21.7502461 L20.4450454,21.8137664 C20.339693,21.8119986 20.2432986,21.8731709 20.1994912,21.969596 C20.1556838,22.0660211 20.1727784,22.1793969 20.2430377,22.2584085 L22.0358558,24.4879711 C22.0863578,24.5578434 22.105296,24.6467718 22.080045,24.7357002 L21.2593888,27.4861293 C21.2266987,27.5852929 21.2545425,27.6945312 21.3306289,27.7656226 C21.4067153,27.836714 21.5170401,27.8565737 21.6129023,27.8164348 L24.2831912,26.793758 C24.364392,26.7608035 24.456526,26.7703119 24.5293881,26.8191661 L26.8777273,28.4516379 C26.9611339,28.5103655 27.0705922,28.5158558 27.1593896,28.4657656 C27.248187,28.4156754 27.3006418,28.3188508 27.2943682,28.2166127 L27.1428624,25.3518472 C27.1428624,25.2629187 27.1807388,25.1739903 27.250179,25.1231741 L29.5227653,23.3763658 L29.5227653,23.3827178 Z M56.9768711,17.316529 L57.7217744,14.5406919 C57.744965,14.4583471 57.8060099,14.3921972 57.8859057,14.362835 L60.5814456,13.4100305 C60.6781811,13.3781266 60.7482211,13.2933091 60.7616753,13.1917749 C60.7751294,13.0902407 60.7296217,12.9899209 60.644573,12.9336283 L58.2457318,11.3583248 C58.1729893,11.3104672 58.1281755,11.2297751 58.1257898,11.1423558 L58.0626624,8.27123815 C58.0644192,8.16523002 58.0036253,8.06823565 57.9077967,8.02415561 C57.811968,7.98007557 57.6992935,7.99727653 57.6207706,8.06797318 L55.4049989,9.87194974 C55.3366313,9.92943584 55.2441403,9.94852644 55.158802,9.92276598 L52.4253857,9.09700206 C52.3276843,9.06749415 52.2218231,9.09700288 52.1531384,9.17289079 C52.0844537,9.24877869 52.0651273,9.35758641 52.1034359,9.45271575 L53.1134743,12.1332725 C53.1485002,12.2167831 53.1389902,12.3124757 53.0882234,12.3873537 L51.4658492,14.7439568 C51.4074848,14.8278825 51.4020285,14.9380221 51.4518088,15.0273722 C51.5015892,15.1167223 51.597815,15.1695035 51.6994206,15.1631908 L54.5464663,15.0234462 C54.6348446,15.0170941 54.723223,15.0552063 54.7737249,15.1250787 L56.5097284,17.4118095 C56.6359832,17.5833143 56.9137437,17.5324981 56.9768711,17.316529 L56.9768711,17.316529 Z M58.4666777,81.4974414 L61.2632215,80.9067026 C61.3467011,80.8888123 61.4336352,80.9124543 61.4967929,80.9702229 L63.5673716,82.9520563 C63.6407195,83.0193697 63.7452933,83.0398137 63.8383543,83.0050331 C63.9314153,82.9702524 63.9973701,82.886075 64.0092634,82.7869035 L64.3185876,79.92849 C64.3291035,79.8419755 64.3809557,79.7660847 64.4574679,79.725225 L66.9699384,78.3595385 C67.0576427,78.3106909 67.1104693,78.216248 67.1064627,78.1154613 C67.1024562,78.0146747 67.0423017,77.9247792 66.9510002,77.8831363 L64.3438386,76.7080107 C64.264122,76.6715714 64.2074242,76.5978809 64.1923328,76.5110978 L63.6746881,73.6844444 C63.6546094,73.5864815 63.5817591,73.5080503 63.4859798,73.4812793 C63.3902004,73.4545083 63.2875858,73.4838959 63.2201709,73.5574038 L61.301098,75.6853339 C61.2429364,75.7480104 61.1583789,75.7787352 61.0738393,75.7679103 L58.2394191,75.3867885 C58.1384809,75.3724579 58.0383159,75.4176259 57.9817709,75.5029713 C57.9252259,75.5883167 57.9223153,75.6987245 57.974284,75.7869663 L59.3946505,78.2769622 C59.4413028,78.3540539 59.4460532,78.4496536 59.407276,78.5310434 L58.169979,81.1163196 C58.1229839,81.2088553 58.1336655,81.3204284 58.1973514,81.4022356 C58.2610374,81.4840428 58.3661367,81.521195 58.4666777,81.4974414 L58.4666777,81.4974414 Z M43.3350402,78.4675231 C43.3123893,78.5537287 43.2484345,78.6228484 43.1645962,78.6517319 L40.4753691,79.6045365 C40.3786336,79.6364404 40.3085935,79.7212579 40.2951394,79.8227921 C40.2816852,79.9243262 40.327193,80.024646 40.4122417,80.0809387 L42.8110828,81.6498902 C42.8742102,81.7007064 42.9247121,81.7769308 42.9247121,81.8658592 L42.9941523,84.7369768 C43.000465,84.9592978 43.2592873,85.0799864 43.4297313,84.9402418 L45.6518158,83.1362652 C45.7198524,83.083116 45.8093076,83.0665348 45.8916999,83.091801 L48.631429,83.9175649 C48.7291304,83.9470728 48.8349916,83.9175641 48.9036763,83.8416762 C48.972361,83.7657883 48.9916874,83.6569806 48.9533787,83.5618512 L47.9433403,80.8749425 C47.9105897,80.7932363 47.9200393,80.7005289 47.9685913,80.6272133 L49.5909655,78.2642581 C49.6493299,78.1803324 49.6547862,78.0701928 49.6050058,77.9808427 C49.5552255,77.8914927 49.4589997,77.8387114 49.3573941,77.8450241 L46.5040356,77.9911208 C46.417259,77.9936945 46.3347273,77.9533581 46.2830898,77.8831363 L44.5470863,75.5964054 C44.4854389,75.5154157 44.3832883,75.4768912 44.2839245,75.4971579 C44.1845607,75.5174245 44.1053822,75.5929338 44.0799435,75.6916859 L43.3350402,78.4675231 L43.3350402,78.4675231 Z M71.5593003,69.7017215 C71.4787288,69.7628167 71.4395985,69.8646295 71.4583527,69.9643758 C71.4771069,70.0641222 71.5504953,70.1445151 71.6476786,70.1717717 L74.406346,70.9213113 C74.4896085,70.9459271 74.5556286,71.0099856 74.5831027,71.0928161 L75.5300137,73.7987809 C75.5617203,73.8961185 75.6460131,73.9665944 75.7469193,73.9801323 C75.8478254,73.9936702 75.9475247,73.9478792 76.0034692,73.8623012 L77.5690286,71.4485298 C77.6180008,71.3777496 77.6979565,71.3351567 77.7836618,71.3341932 L80.6370202,71.2643209 C80.7398687,71.2638992 80.8331961,71.2036655 80.8764674,71.1097811 C80.9197387,71.0158967 80.9051462,70.9053016 80.8390279,70.8260308 L79.0462098,68.5901162 C78.9890793,68.5213231 78.9701067,68.4282564 78.9957079,68.342387 L79.816364,65.591958 C79.8456894,65.4936485 79.8163632,65.3871284 79.7409447,65.3180162 C79.6655262,65.248904 79.5573915,65.2294574 79.4628506,65.2680045 L76.7988744,66.2843293 C76.7158803,66.3195732 76.6207796,66.3100039 76.5463648,66.2589212 L74.2043383,64.6264494 C74.1209317,64.5677217 74.0114734,64.5622315 73.922676,64.6123217 C73.8338786,64.6624118 73.7814238,64.7592365 73.7876975,64.8614745 L73.9265777,67.7325921 C73.9306168,67.8187733 73.8929875,67.9015995 73.8255739,67.9549132 L71.5529875,69.7017215 L71.5593003,69.7017215 Z" id="形状"></path>
            </g>
        </g>
    </g>
</svg>