<svg xmlns="http://www.w3.org/2000/svg" viewBox="0 0 170 47"><defs><style>.cls-1{fill:#ffdf39;}.cls-2{fill:#435bc9;}</style></defs><title>to-map</title><g id="图层_2" data-name="图层 2"><g id="图层_1-2" data-name="图层 1"><g id="页面1"><g id="桌面端HD"><g id="编组"><rect id="矩形" class="cls-1" width="170" height="47"/><path id="进入地图_" data-name="进入地图&gt;" class="cls-2" d="M36.73,13.81l-.51,2.9h2.4l.17-2.88h2.47l.1,2.86H42.9l0,2.06-1.49.15.1,2.83,2.16-.15V25l-2-.07.14,4H38l.22-4.08-3.34-.15-.69,4-2.5-.22L32,24.54l-2-.1,0-2,2.2-.12.22-2.62-1.68.15v-3.1H32.6l.26-3.21Zm5.33,19.82-14.43-1.7L27,33.73l-3.64-1.68,3.36-3.79-3.15-.48V26.6l1.23-.05,1.75-3-3-.45V21.92l6.12-.31-1.75,4.8,1.75-.1L28.33,30l15.05,0ZM24.13,16.57H29L28,20.79H25.18Zm11.13,5.52,3.08-.17.14-2.78-2.74.24Zm32.07,6.67L63.59,32l-5.52-8L50,31.45l-1.7-1.78,7.22-9.36L52.84,16.4l1.89-1.7ZM89.77,15.22l-.31,4.25,3.77-.36L94,27H90.3l.1-.74-.6-.07V24.73l.81-.1L91,21.85l-1.7.26-.41,5.57H87l-.33-5.18-1.75.28.4,6.63L90.66,29l.12-1.11h1.75l.12.94,1-.1,0,3.22-12.48-.1.41-8.54-1.32.19V20.29l1.46-.12.17-3.6,2.59,0,.19,3.34,1.78-.14-.26-4.52ZM71.94,22l2-.15-.53-3.43h4.83l-.48,3.17,1.89-.14,0,3.19-2.31-.31-.24,1.6,3.07.27v1.65l-8.56.77,0-3.17,2.88.27-.29-1.8-2.28-.31Zm31.57-8.35,13-.46L117,34.3h-4.16l0-.6-13.94.2.41-21.12h4.32Zm-.22,1.7-1.9,15.12L113,31.74l1.44-15.1ZM111,26.1l-3.29-2.74-3.81,2L103.12,24,106,22l-.94-.79.72-1.06,1.82.74,1.32-.93-2.76-.65L104,21.61l-.86-.67,2.06-5.19L108,17.29l-.69.74,4.44-.17v3.29l-1.44.77,2.76,1.1Zm-1.06,4.48-5.64-1.7.32-1.3,6,.17Zm-3.69-6.19L110,25.78l-.24,1.32-4.2-.24Zm30.58,5.35,6.82-4.22-6.82-4.7,1.71-2.62,7.72,6.22v2.2l-7.72,5.74Z"/></g></g></g></g></g></svg>