<svg xmlns="http://www.w3.org/2000/svg" viewBox="0 0 265.66 235.56"><defs><style>.cls-1,.cls-6,.cls-7{fill:#fff;}.cls-1,.cls-2,.cls-3,.cls-4,.cls-5,.cls-6,.cls-7,.cls-8{stroke:#3f58a5;stroke-width:3px;}.cls-1,.cls-3,.cls-4,.cls-5,.cls-6,.cls-8{stroke-miterlimit:10;}.cls-2,.cls-5{fill:#f4d433;}.cls-2,.cls-6,.cls-7{stroke-linecap:round;}.cls-2,.cls-7{stroke-linejoin:round;}.cls-3{fill:none;}.cls-4{fill:#3f58a5;}.cls-8{fill:#c61a1e;}</style></defs><title>toc</title><g id="图层_2" data-name="图层 2"><g id="图层_2-2" data-name="图层 2"><path class="cls-1" d="M65.23,191.32H209.69a86,86,0,0,0,24.47-49.93c6.22-49.93-32.62-95.89-86.77-102.64S44.3,67,38.07,116.94C34.56,145.11,45.4,172,65.23,191.32Z"/><path class="cls-2" d="M225.17,78.44S191.89,41.49,143.3,37.72c7.45-10-3.92-34.91-3.23-25.84.77,10.08-15,26-15,26h0A104.54,104.54,0,0,0,112.52,40l0-.11c-3.31.81-6.47,1.73-9.5,2.72l-.08,0h0C61.23,56.42,42.54,85.54,35,102a10.86,10.86,0,0,0,8.27,15.27C83.1,123.12,97.36,81.44,106.46,58c5.78,19.42,20.25,51.1,54.07,58,0,0,19.83.45,24.61-10.73,2,6.63,9.33,15,31.92,20C217.06,125.2,267.47,125.68,225.17,78.44Z"/><path class="cls-3" d="M116.71,134.38c-2.26,18.15-16.68,31.29-32.19,29.35s-26.27-18.21-24-36.35a37.67,37.67,0,0,1,4.61-14C71,103,81.59,96.64,92.71,98,108.23,100,119,116.24,116.71,134.38Z"/><ellipse class="cls-4" cx="203.19" cy="128.66" rx="9.98" ry="14.56" transform="translate(-24.75 51.95) rotate(-13.74)"/><ellipse class="cls-4" cx="102.92" cy="119.15" rx="9.98" ry="14.56" transform="translate(-25.36 27.86) rotate(-13.74)"/><path class="cls-5" d="M224.16,173.51s54.69,17.31,36.17,39.8S215.6,202.57,225,195.37s32.38,29.94,11.11,37.56-32.89-25.16-29.22-37.31C206.88,195.62,219.85,184.14,224.16,173.51Z"/><path class="cls-3" d="M121.05,178.51s12.38,10,20.56.71"/><path class="cls-3" d="M215.59,141.81c-2.26,18.15-16.67,31.29-32.19,29.35s-26.26-18.21-24-36.35a37.55,37.55,0,0,1,4.6-14c5.92-10.39,16.47-16.75,27.59-15.36C207.11,107.39,217.86,123.67,215.59,141.81Z"/><path class="cls-3" d="M109.48,92.36s-20.89-6.08-29.28-.83"/><path class="cls-3" d="M174.27,93.52s21.69,1.71,27.67,9.59"/><path class="cls-1" d="M38.07,116.94S18.52,104.28,14.77,132,41.18,152.4,41.18,152.4,36.31,126.51,38.07,116.94Z"/><path class="cls-6" d="M22.18,131.64s5-9.86,11.23-4.21"/><path class="cls-6" d="M26.59,128.73s12.27,9.21,12.92,13.48"/><path class="cls-1" d="M234.83,143.66s21.71-8.44,19.77,19.48S221,177.29,221,177.29,234.61,153.4,234.83,143.66Z"/><path class="cls-6" d="M247.42,161.27s-2.9-10.66-10.15-6.39"/><path class="cls-6" d="M243.69,157.54s-15.51,4.91-17,9"/><path class="cls-7" d="M71.48,158l-4.72,5.37Z"/><path class="cls-7" d="M76.34,161.21l-4,6.23Z"/><path class="cls-7" d="M171.94,167.07l-4.72,5.36Z"/><path class="cls-7" d="M176.8,170.3l-4,6.23Z"/><path class="cls-5" d="M44.3,161.42s-56.11,12-39.84,36.14S50,191.18,41.36,183.1,6.25,209.79,26.68,219.42s35.16-21.87,32.68-34.32C59.36,185.1,47.56,172.42,44.3,161.42Z"/><path class="cls-7" d="M33.29,197s14.49-26,30.8-24.28,22.48,13,22.74,19.67-11,27.16-18.16,26.79c-7.94-.41.5-12.92,1.24-14.79C70.58,202.7,63.73,221,55.36,216c-5.6-3.32,2.11-17.15,2.11-17.15S54.65,217.06,44,213.3s.25-17.38.25-17.38S41.76,212.46,35.12,207C30.45,203.17,33.29,197,33.29,197Z"/><path class="cls-7" d="M232.56,197.86s-14.5-26-30.8-24.27-22.48,13-22.74,19.67,11,27.15,18.15,26.79c8-.41-.49-12.93-1.23-14.79-.67-1.69,6.18,16.58,14.55,11.62,5.6-3.32-2.12-17.15-2.12-17.15s2.83,18.2,13.49,14.44-.26-17.38-.26-17.38,2.49,16.54,9.13,11.08C235.4,204,232.56,197.86,232.56,197.86Z"/><path class="cls-1" d="M34.18,110.29s-19-38.72,28.92-77.45,156.73-46,159.05,3.65c1.85,39.76,3.9,35.15-7.11,39.76,0,0-51.82-47.06-110.55-26.52C42,71.58,34.18,110.29,34.18,110.29Z"/><path class="cls-3" d="M29.16,100.06S114.42-24.42,223.62,70.42"/><circle class="cls-8" cx="56.16" cy="79.22" r="17.83"/></g></g></svg>