<svg id="图层_2" data-name="图层 2" xmlns="http://www.w3.org/2000/svg" viewBox="0 0 71.72 46.62"><defs><style>.cls-1{fill:#f5c71d;}.cls-2{fill:none;}.cls-2,.cls-5{stroke:#3b549c;stroke-miterlimit:10;}.cls-3{fill:#3b549c;}.cls-4,.cls-5{fill:#fff;}.cls-6{fill:#e9579a;}</style></defs><title>figure</title><path class="cls-1" d="M26.69,14.48C10.66,18.17,2,31.14.71,46.1c9.93,0,16.05-.72,26-.69Z"/><path class="cls-1" d="M51.67,45.73c8.18,0,11.43.34,19.62.37-1.4-12-5-21.61-20.31-30.82Z"/><line class="cls-2" x1="35.64" y1="22.04" x2="43.23" y2="22.04"/><circle class="cls-3" cx="35.54" cy="22.09" r="0.54"/><circle class="cls-3" cx="43.35" cy="22.09" r="0.54"/><path class="cls-4" d="M26.69,18.05V45.29l25,.08q-.34-15-.68-30.09a42.68,42.68,0,0,0-23.08-1Z"/><path class="cls-2" d="M.71,46.1c1.53-17.82,14.13-32.28,34.18-33,21.3-.73,34.76,14,36.27,32.94C44.39,46,27.47,46.18.71,46.1Z"/><rect class="cls-5" x="43.52" y="0.56" width="7.93" height="22.06" rx="3.97" ry="3.97"/><line class="cls-2" x1="43.52" y1="9.16" x2="51.46" y2="9.16"/><rect class="cls-3" x="47.91" y="8.89" width="3.97" height="5.41" rx="1.98" ry="1.98"/><rect class="cls-5" x="26.47" y="0.56" width="7.54" height="22.06" rx="3.77" ry="3.77"/><line class="cls-2" x1="26.47" y1="9.16" x2="34" y2="9.16"/><rect class="cls-3" x="30.53" y="8.87" width="3.77" height="5.45" rx="1.88" ry="1.88"/><circle class="cls-6" cx="22.89" cy="20.79" r="5.53"/><circle class="cls-6" cx="55.48" cy="21.28" r="5.05"/></svg>