<svg xmlns="http://www.w3.org/2000/svg" viewBox="0 0 41.35 19.98"><defs><style>.cls-1{fill:#fff;stroke:#ffe600;stroke-miterlimit:10;}.cls-2{fill:#d8d8d8;}</style></defs><title>figure-20</title><g id="图层_2" data-name="图层 2"><g id="图层_16" data-name="图层 16"><path class="cls-1" d="M40.63,13.48,38.58,10l-1.8.76A19.65,19.65,0,0,0,34.7,8.18l1.83-1.71-3.4-2.58L31.46,5.46a19.32,19.32,0,0,0-3.09-1.68l.73-1.94L24.73.67,24.05,2.5a19.89,19.89,0,0,0-4.62-.26L19,.58l-4.47.83L15,3.08a19,19,0,0,0-3.49,1.46L9.77,3,6.23,5.9,7.72,7.23a20.58,20.58,0,0,0-3,3.54L3.12,10,.75,13.26l2,1A27.18,27.18,0,0,0,1,19.46l9.23-.22a13,13,0,0,1,4.18-6.59,10.54,10.54,0,0,1,13-.14,12.8,12.8,0,0,1,4.25,6.73h8.68a26.87,26.87,0,0,0-1.63-4.95Z"/><path class="cls-2" d="M25.09,8.21a9,9,0,0,0-3.44-.46,9.06,9.06,0,0,0-3.51.46V5.88a8.94,8.94,0,0,1,3.45-.45,8.9,8.9,0,0,1,3.5.45Z"/></g></g></svg>