<svg xmlns="http://www.w3.org/2000/svg" viewBox="0 0 44.7 23.58"><defs><style>.cls-1,.cls-2{fill:#fff;}.cls-1,.cls-3,.cls-4{stroke:#4058a6;}.cls-1,.cls-2,.cls-3,.cls-4{stroke-miterlimit:10;}.cls-2{stroke:#fff;}.cls-3{fill:#1e7dc2;}.cls-4{fill:none;}</style></defs><title>figure-22</title><g id="图层_2" data-name="图层 2"><g id="图层_6" data-name="图层 6"><path class="cls-1" d="M7.52,2.39,10,20.55"/><path class="cls-2" d="M36.91,2.33,34.23,16.49"/><path class="cls-1" d="M.49,2.37l4.4,17.79"/><path class="cls-1" d="M.74,17l40.32.66a.11.11,0,0,0,.09-.18,27.94,27.94,0,0,0-8.25-6.75c-9.75-5.15-19.16-1.94-22.27-.67a30.65,30.65,0,0,0-10,6.74A.12.12,0,0,0,.74,17Z"/><rect class="cls-3" x="0.66" y="16.83" width="40.64" height="6.25" rx="0.11" ry="0.11"/><path class="cls-2" d="M44.21.1,39.62,22.84"/></g><g id="图层_22" data-name="图层 22"><path class="cls-4" d="M20.05,8.12A16.61,16.61,0,0,0,10.84,12,16.39,16.39,0,0,0,6.5,18L6,22.84,16.07,23l-.18-5.33a14.27,14.27,0,0,1,4.16-9.57Z"/><path class="cls-4" d="M22.58,8.21a13.15,13.15,0,0,1,3.06,3.07A13.34,13.34,0,0,1,28,17.47l.09,5.37,10.48.09V17.65a25.06,25.06,0,0,0-16-9.44Z"/></g></g></svg>