<svg id="图层_2" data-name="图层 2" xmlns="http://www.w3.org/2000/svg" viewBox="0 0 47.69 42.11"><defs><style>.cls-1,.cls-2{fill:#fff;}.cls-1,.cls-5,.cls-6{stroke:#4058a6;stroke-width:0.5px;}.cls-1,.cls-4,.cls-5,.cls-6{stroke-miterlimit:10;}.cls-3{fill:#4058a6;}.cls-4{fill:none;stroke:#231815;stroke-width:0.75px;}.cls-5,.cls-7{fill:#f5c71d;}.cls-6{fill:#1e7dc2;}</style></defs><title>figure</title><polygon class="cls-1" points="13.23 25.95 13.23 13.85 5.21 13.85 5.21 40.14 13.23 40.14 13.23 30.95 28.64 30.95 28.64 40.14 36.66 40.14 36.66 30.95 36.66 30.6 36.66 25.95 13.23 25.95"/><path class="cls-2" d="M5,13.58V.24H28a5.69,5.69,0,0,1,5.69,5.69v.89H45v6.76ZM32.65,6.82V5.93A4.64,4.64,0,0,0,28,1.3h-1.4V6.82Zm-7.09,0V1.3H19.83V6.82Zm-6.79,0V1.3H13V6.82ZM12,6.82V1.3H6V6.82Z"/><path class="cls-3" d="M28,.49a5.45,5.45,0,0,1,5.44,5.44V7.07H44.72v6.26H5.21V9.73h0V.49H28M26.37,7.07H32.9V5.93A4.89,4.89,0,0,0,28,1.05H26.37v6m-6.79,0h6.23v-6H19.58v6m-6.82,0H19v-6H12.76v6m-7,0H12.2v-6H5.76v6M28,0H4.7V10.23h0v3.6H45.22V6.57H34V5.93A6,6,0,0,0,28,0ZM26.87,1.55H28A4.39,4.39,0,0,1,32.4,5.93v.64H26.87v-5Zm-6.79,0h5.23v5H20.08v-5Zm-6.82,0h5.26v5H13.26v-5Zm-7,0H11.7v5H6.26v-5Z"/><path class="cls-1" d="M46.17,41.8l1.19-.13L44,12.18l-1.18.14.78,6.85H33.77l-.85-7.49-1.18.13,3.34,29.48,1.18-.13-.5-4.45H45.6ZM43.74,20.36l.79,6.94H34.69l-.78-6.94ZM35.62,35.47l-.79-6.93h9.84l.79,6.93Z"/><path class="cls-4" d="M9.07,7.07a1.09,1.09,0,0,1,1.1-1,1,1,0,1,1,0,2L10,8.78,5.47,10.21a12.07,12.07,0,0,0,4.24,1,12,12,0,0,0,4.56-.68L10,8.78"/><path class="cls-5" d="M7.73,8.71a7.58,7.58,0,0,0-4,1.87,7,7,0,0,0-1,1.11A13.85,13.85,0,0,0,.45,17L5,18.26l-.27-2.1.13,9.65,9.53-.76.36-10.17-.12,3.3,3.91-1.32A35.06,35.06,0,0,0,16.41,12a6,6,0,0,0-1.62-2.17,5.43,5.43,0,0,0-3-1.07,2,2,0,0,1-.62,1,2.1,2.1,0,0,1-1.7.42A2.55,2.55,0,0,1,7.73,8.71Z"/><path class="cls-4" d="M15.73,7.14a1.23,1.23,0,0,1,.87-.73A1.13,1.13,0,0,1,17.83,7a1.52,1.52,0,0,1-1.19,1.78l-.13.68L12,10.9a12,12,0,0,0,4.24,1,12.23,12.23,0,0,0,4.56-.69L16.51,9.46"/><path class="cls-6" d="M14.18,9.5a7.61,7.61,0,0,0-4,1.87,7.15,7.15,0,0,0-1,1.11A13.74,13.74,0,0,0,6.9,17.81l4.52,1.24L11.16,17l.13,9.65,9.53-.75.35-10.17L21.06,19,25,17.65a33.87,33.87,0,0,0-2.1-4.83,5.88,5.88,0,0,0-1.62-2.17,5.28,5.28,0,0,0-3-1.06,2,2,0,0,1-.62,1A2.11,2.11,0,0,1,16,11,2.55,2.55,0,0,1,14.18,9.5Z"/><circle class="cls-7" cx="9.22" cy="28.45" r="0.87"/><circle class="cls-7" cx="9.22" cy="32.63" r="0.87"/><circle class="cls-7" cx="9.22" cy="36.8" r="0.87"/><rect class="cls-7" x="13.23" y="28.63" width="17.09" height="1.37"/></svg>