<svg xmlns="http://www.w3.org/2000/svg" viewBox="0 0 27.14 25.98"><defs><style>.cls-1{fill:#f5c71d;stroke-width:0.5px;}.cls-1,.cls-2{stroke:#4058a6;stroke-miterlimit:10;}.cls-2{fill:none;}</style></defs><title>figure-21</title><g id="图层_2" data-name="图层 2"><g id="图层_6" data-name="图层 6"><ellipse class="cls-1" cx="13.6" cy="12.99" rx="13.29" ry="12.74"/><path class="cls-2" d="M17.34,1.11a10.9,10.9,0,0,0-7,2.66C3.65,9.41,4,21.23,4.07,21.86"/><path class="cls-2" d="M.71,9.71a16,16,0,0,0,5.44,5.94c8.7,5.57,19.83.67,20.42.4"/><path class="cls-2" d="M25.55,7.07a22.53,22.53,0,0,1-11.28,3.81,7.09,7.09,0,0,0-4.06.93,5.31,5.31,0,0,0-2,5.66c.46,1.71,1.72,2.75,3.07,3.84a18.83,18.83,0,0,0,8,3.64"/><path class="cls-2" d="M3.38,4.73a20.36,20.36,0,0,1,.24,3,13.32,13.32,0,0,1-.83,5.37A11.33,11.33,0,0,1,.36,16.72"/></g></g></svg>