<svg id="图层_2" data-name="图层 2" xmlns="http://www.w3.org/2000/svg" viewBox="0 0 69.81 55.76"><defs><style>.cls-1{fill:#ee761f;}.cls-1,.cls-2,.cls-3,.cls-4,.cls-5,.cls-6{stroke:#4058a6;stroke-miterlimit:10;}.cls-2{fill:#ffe600;}.cls-3{fill:#fff;}.cls-4{fill:#d8d8d8;}.cls-5{fill:#e9579a;}.cls-6{fill:#f5c71d;}</style></defs><title>figure</title><rect class="cls-1" x="32.2" y="5.98" width="4.46" height="4.22" transform="translate(68.87 16.18) rotate(180)"/><rect class="cls-2" x="27.11" y="10.05" width="32.55" height="45.11" transform="translate(86.77 65.21) rotate(180)"/><rect class="cls-2" x="24.02" y="16.81" width="4.6" height="4.35" transform="translate(52.64 37.97) rotate(180)"/><rect class="cls-3" x="59.66" y="10.05" width="9.65" height="45.11" transform="translate(128.96 65.21) rotate(180)"/><rect class="cls-3" x="22.15" y="20.95" width="29.02" height="34.22" transform="translate(73.33 76.11) rotate(180)"/><rect class="cls-4" x="51.18" y="20.95" width="2.98" height="34.22" transform="translate(105.33 76.11) rotate(180)"/><rect class="cls-5" x="38.38" y="6.01" width="4.4" height="4.16" transform="translate(81.16 16.18) rotate(180)"/><rect class="cls-1" x="62.59" y="12.83" width="3.78" height="2.8" transform="translate(128.96 28.46) rotate(180)"/><path class="cls-3" d="M20.89,16.81c1.4-3,1-6.83-2.4-9.82a3.57,3.57,0,0,0-1-.63,8.5,8.5,0,0,0-7.75.52.3.3,0,0,1-.44-.35A4.82,4.82,0,0,0,7.39,1.1L7.29,1C1.78-1.18-2,5.31,2.55,9a.21.21,0,0,0,.1.06,5.17,5.17,0,0,0,4,.19A.29.29,0,0,1,7,9.69a7.41,7.41,0,0,0-.66,1.59.3.3,0,0,1-.16.17A9,9,0,0,0,11,28.53a.3.3,0,0,1,.31.19c2.2,5.66,10,7.89,15.19,1.93a4,4,0,0,0,.74-1.28c2.16-6.21-1.44-11.14-6.16-12.15A.29.29,0,0,1,20.89,16.81Z"/><polygon class="cls-6" points="12.8 31.11 31.51 31.11 28.79 55.16 16.35 55.16 12.8 31.11"/><rect class="cls-3" x="10.37" y="30.06" width="23.56" height="2.11"/></svg>