<svg id="图层_2" data-name="图层 2" xmlns="http://www.w3.org/2000/svg" viewBox="0 0 39.99 31.22"><defs><style>.cls-1{fill:#ffe600;stroke-width:3px;}.cls-1,.cls-2,.cls-3{stroke:#4058a6;}.cls-1,.cls-2,.cls-3,.cls-5{stroke-miterlimit:10;}.cls-2{fill:#fff;}.cls-3{fill:#3f58a6;}.cls-4{fill:#3b549c;}.cls-5{fill:#1e7dc2;stroke:#3b549c;stroke-width:0.5px;}</style></defs><title>figure</title><path class="cls-1" d="M14.48,27.4c0,.16-1.05-20.73-1.05-20.73"/><line class="cls-1" x1="29.73" y1="6.82" x2="30.11" y2="27.25"/><path class="cls-2" d="M36.25,13.82c-10.73,2.5-17.42,2.37-28.16-.06.44-2,.92-4.06,1.39-6.09,9.89,2.24,15.44,2.42,25.35.1C35.3,9.78,35.81,11.8,36.25,13.82Z"/><polygon class="cls-3" points="22.13 0.6 6.19 7.67 37.67 7.67 22.13 0.6"/><path class="cls-4" d="M15.23,26.57c.6-.12,1.52-.32,1.57.51a.63.63,0,0,0,.94.54c.64-.39,1.39-.49,1.58.4s1.37.45,1.2-.33c-.36-1.72-2.1-2-3.41-1.15l.94.54c-.11-1.87-1.58-2-3.16-1.72-.78.16-.45,1.36.34,1.21Z"/><path class="cls-5" d="M19.29,22.65a.13.13,0,0,0,.24-.08A11.31,11.31,0,0,0,17.24,17c-1.07-1.36-3-3.12-3.81-2.65-.51.31-.36,1.54-.13,2.56a.13.13,0,0,1-.21.13Q9.5,14,8.8,14.57t.72,3.18a.14.14,0,0,1-.14.19q-4.4-.63-4.65.14c-.14.4.59,1.09,2.17,2.06a.13.13,0,0,1,0,.18,6.42,6.42,0,0,0,.47,7.22c1.4,1.72,3.4,2,3.33,2.18s-2.26.21-3.81-1.18S6,26,4.28,24.62a3.13,3.13,0,0,0-2.54-.86C1,23.94.27,24.58.36,25s1.36.35,2.69,1.24a6.66,6.66,0,0,1,1.68,1.94c1.86,2.33,5.48,2.5,7.17,2.58a13.92,13.92,0,0,0,4.71-.62.13.13,0,0,0,0-.26c-3.2-.47-5.5-2.48-5.79-4.74a4.44,4.44,0,0,1,1.32-3.7,4.67,4.67,0,0,1,5.08-.71A4.81,4.81,0,0,1,19.29,22.65Z"/></svg>