<svg id="图层_2" data-name="图层 2" xmlns="http://www.w3.org/2000/svg" viewBox="0 0 50.89 38.62"><defs><style>.cls-1{fill:#fff;stroke:#4058a6;stroke-miterlimit:10;}.cls-2{fill:#e9433d;}.cls-3{fill:#1e7dc2;}</style></defs><title>figure</title><path class="cls-1" d="M49.6,14.1,26,.87a1.12,1.12,0,0,0-1.12,0L1.28,14.1a1.15,1.15,0,0,0,.57,2.15H7.66V38.09H44.55V16.25H49A1.15,1.15,0,0,0,49.6,14.1Z"/><polygon class="cls-2" points="35.47 13.6 29.2 13.6 29.2 8.38 24.53 8.38 24.53 13.6 18.5 13.6 18.5 18.94 24.53 18.94 24.53 26 29.2 26 29.2 18.94 35.47 18.94 35.47 13.6"/><rect class="cls-3" x="12.52" y="15.73" width="3.85" height="22.36"/><rect class="cls-3" x="36.19" y="15.73" width="3.85" height="22.36"/></svg>