<svg id="图层_2" data-name="图层 2" xmlns="http://www.w3.org/2000/svg" viewBox="0 0 35.63 67.03"><defs><style>.cls-1,.cls-2,.cls-4,.cls-7{fill:none;}.cls-1,.cls-2,.cls-3{stroke:#4058a6;}.cls-1,.cls-2,.cls-3,.cls-4,.cls-7{stroke-miterlimit:10;}.cls-2{stroke-width:5px;}.cls-3{fill:#ffe600;}.cls-3,.cls-4{stroke-width:3px;}.cls-4{stroke:#fff;}.cls-5{fill:#fff;}.cls-6{fill:#f5c71d;}.cls-7{stroke:#3c5329;stroke-width:0.5px;}</style></defs><title>figure</title><path class="cls-1" d="M10.2,4.21C16.07,9.5,26.91,17.49,32.78,22.78c0,1.67-1.47,3.23-1.42,4.9C24.58,21.44,14.39,12.6,7.6,6.36L5.15,10.1c7.4,6.62,16.42,15,23.82,21.58,0,1.36-3.23,1-3.28,2.33C17.88,27.36,11.58,20.72,3.77,14.07"/><path class="cls-1" d="M25.72,5.92C20.13,11.25,9.8,19.29,4.21,24.61c0,1.68,1.4,3.25,1.35,4.93C12,23.26,21.74,14.36,28.2,8.09l2.34,3.76c-7,6.66-15.65,15.06-22.7,21.71,0,1.37,3.08,1,3.13,2.35,7.44-6.69,13.44-13.37,20.88-20.06"/><ellipse class="cls-2" cx="17.81" cy="20.29" rx="15.22" ry="17.74"/><path class="cls-3" d="M10.76,36.13a.07.07,0,0,0-.09.1,21.93,21.93,0,0,1,4.95,9.84,19.81,19.81,0,0,1,.37,3.1,73.74,73.74,0,0,1-1.14,16.21s0,.09.07.08l6-.17A.07.07,0,0,0,21,65.2,39.14,39.14,0,0,1,19.4,49.35,28.49,28.49,0,0,1,20,46.13a28.8,28.8,0,0,1,4.63-9.89.07.07,0,0,0-.09-.1,13.51,13.51,0,0,1-13.77,0Z"/><ellipse class="cls-4" cx="17.81" cy="20.29" rx="15.22" ry="17.74"/><path class="cls-5" d="M10.38,35.89a22.2,22.2,0,0,1,5.24,10.18,19.81,19.81,0,0,1,.37,3.1,74.17,74.17,0,0,1-1.15,16.3L21,65.29A39.21,39.21,0,0,1,19.4,49.35,27.79,27.79,0,0,1,24.83,36a13.5,13.5,0,0,1-14.45-.07Z"/><circle class="cls-6" cx="26.39" cy="16.51" r="7.96"/><path class="cls-7" d="M21.16,10.84a4.55,4.55,0,0,1,2.61.19,4.88,4.88,0,0,1,2.87,3.58c.35,1.95-.92,2.8-.2,4.46a3.19,3.19,0,0,0,1.41,1.51,3.91,3.91,0,0,0,4.7-1.6,4.33,4.33,0,0,0,.32-3.1c-.3-1.18-.93-1.53-1.06-2.68a3.92,3.92,0,0,1,.41-2.11"/></svg>