<svg id="图层_2" data-name="图层 2" xmlns="http://www.w3.org/2000/svg" viewBox="0 0 59.31 54.39"><defs><style>.cls-1,.cls-3{fill:#fff;}.cls-1{stroke:#4058a6;}.cls-1,.cls-4{stroke-miterlimit:10;}.cls-2{fill:#4058a6;}.cls-4{fill:#ffe600;stroke:#ffe600;}</style></defs><title>figure</title><path class="cls-1" d="M58.34,18.5,30.33.68a1.08,1.08,0,0,0-1.15,0L1.18,18.5a1.06,1.06,0,0,0,.57,2h8.92V50.72H49.55V20.46h8.21A1.06,1.06,0,0,0,58.34,18.5Z"/><circle class="cls-2" cx="29.6" cy="32.93" r="15.3"/><rect class="cls-3" x="28.53" y="18.85" width="2.26" height="14.08"/><rect class="cls-3" x="32.35" y="24.41" width="1.97" height="10.73" transform="translate(32.75 -14.92) rotate(47.48)"/><circle class="cls-3" cx="29.6" cy="32.93" r="1.89"/><rect class="cls-4" x="16.01" y="20.46" width="1.52" height="30.26"/><rect class="cls-4" x="41.35" y="20.46" width="1.52" height="30.26"/><rect class="cls-1" x="8.19" y="48.79" width="43.84" height="5.08"/><rect class="cls-3" x="53.52" y="29.9" width="3.37" height="1.76"/><path class="cls-3" d="M55.56,44.24l-1.09-.9v1.8Z"/></svg>