<svg id="图层_2" data-name="图层 2" xmlns="http://www.w3.org/2000/svg" viewBox="0 0 40.49 35.91">
    <defs>
        <style>
            .cls-1,.cls-2{fill:#fff;}.cls-1,.cls-5,.cls-6{stroke:#4058a6;stroke-width:0.5px;}.cls-1,.cls-4,.cls-5,.cls-6{stroke-miterlimit:10;}.cls-3{fill:#4058a6;}.cls-4{fill:none;stroke:#231815;stroke-width:0.75px;}.cls-5,.cls-7{fill:#f5c71d;}.cls-6{fill:#1e7dc2;}
        </style>
    </defs>
    <title>figure</title>
    <polygon class="cls-1"
             points="11.23 22.06 11.23 11.79 4.42 11.79 4.42 34.1 11.23 34.1 11.23 26.3 24.3 26.3 24.3 34.1 31.11 34.1 31.11 26.3 31.11 26 31.11 22.06 11.23 22.06"/>
    <path class="cls-2"
          d="M4.17,11.61V.21H23.77a4.88,4.88,0,0,1,4.87,4.87V5.8H38.2v5.81ZM27.67,5.8V5.08a3.9,3.9,0,0,0-3.9-3.89H22.62V5.8Zm-6,0V1.19H16.86V5.8Zm-5.75,0V1.19H11.08V5.8Zm-5.79,0V1.19h-5V5.8Z"/>
    <path class="cls-3"
          d="M23.77.46a4.62,4.62,0,0,1,4.62,4.62v1H38v5.31H4.42V8.3h0V.46H23.77m-1.4,5.59h5.55v-1A4.15,4.15,0,0,0,23.77.94h-1.4V6.05m-5.76,0h5.28V.94H16.61V6.05m-5.78,0h5.31V.94H10.83V6.05m-5.94,0h5.46V.94H4.89V6.05M23.77,0H3.91V8.8h0v3.06H38.45V5.55H28.89V5.08A5.13,5.13,0,0,0,23.77,0Zm-.9,1.48h.9a3.65,3.65,0,0,1,3.65,3.64v.47H22.87V1.44Zm-5.76,0h4.28V5.55H17.11V1.44Zm-5.78,0h4.31V5.55H11.33V1.44Zm-5.94,0H9.85V5.55H5.39V1.44Z"/>
    <path class="cls-1"
          d="M39.18,35.51l1-.11-2.84-25-1,.12L37,16.31H28.65L27.93,10l-1,.12,2.83,25,1-.11-.43-3.77h8.35ZM37.11,17.32l.67,5.89H29.43l-.66-5.89ZM30.22,30.14l-.67-5.88H37.9l.67,5.88Z"/>
    <path class="cls-4"
          d="M7.69,6.05a1,1,0,0,1,.94-.83A.89.89,0,0,1,9.5,6a.89.89,0,0,1-.87.88l-.12.58L4.64,8.71a10.15,10.15,0,0,0,3.6.81,10.09,10.09,0,0,0,3.87-.58L8.51,7.49"/>
    <path class="cls-5"
          d="M6.56,7.43A6.57,6.57,0,0,0,3.18,9a6.67,6.67,0,0,0-.83.94,11.84,11.84,0,0,0-2,4.52l3.83,1.06L4,13.75,4.1,22l8.09-.65.3-8.63-.1,2.8,3.32-1.12a30,30,0,0,0-1.79-4.1,5.18,5.18,0,0,0-1.37-1.84A4.49,4.49,0,0,0,10,7.51a1.66,1.66,0,0,1-.53.87,1.8,1.8,0,0,1-1.44.37A2.13,2.13,0,0,1,6.56,7.43Z"/>
    <path class="cls-4"
          d="M13.35,6.1a1,1,0,0,1,.73-.62,1,1,0,0,1,1.05.5,1.28,1.28,0,0,1-1,1.51L14,8.07,10.14,9.3a10.48,10.48,0,0,0,3.59.81,10.46,10.46,0,0,0,3.87-.58L14,8.07"/>
    <path class="cls-6"
          d="M12,8.11A6.52,6.52,0,0,0,8.65,9.69a6.75,6.75,0,0,0-.82.94,11.68,11.68,0,0,0-2,4.52l3.83,1.06-.22-1.79.11,8.2L17.66,22l.3-8.62-.09,2.79L21.18,15a29.89,29.89,0,0,0-1.78-4.09A5,5,0,0,0,18,9.08a4.56,4.56,0,0,0-2.51-.9,1.73,1.73,0,0,1-.53.87,1.8,1.8,0,0,1-1.44.37A2.2,2.2,0,0,1,12,8.11Z"/>
    <circle class="cls-7" cx="7.82" cy="24.18" r="0.74"/>
    <circle class="cls-7" cx="7.82" cy="27.73" r="0.74"/>
    <circle class="cls-7" cx="7.82" cy="31.27" r="0.74"/>
    <rect class="cls-7" x="11.23" y="24.34" width="14.5" height="1.16"/>
</svg>
