<svg id="图层_2" data-name="图层 2" xmlns="http://www.w3.org/2000/svg" viewBox="0 0 54.84 31.49">
    <defs>
        <style>
            .cls-1,.cls-4{fill:#fff;}.cls-1{stroke:#4058a6;stroke-miterlimit:10;}.cls-2{fill:#ee761f;}.cls-3{fill:#e9579a;}.cls-4{stroke:#3d549c;stroke-linecap:round;stroke-linejoin:round;}.cls-5{fill:#ffe600;}
        </style>
    </defs>
    <title>figure</title>
    <path class="cls-1" d="M3,13.87V31H52.59l.33-16.41A45.88,45.88,0,0,0,3,13.87Z"/>
    <rect class="cls-2" x="6.97" y="17.55" width="6.84" height="5.81"/>
    <rect class="cls-2" x="18.98" y="17.64" width="6.84" height="5.81"/>
    <rect class="cls-3" x="30.39" y="17.64" width="6.84" height="5.81"/>
    <rect class="cls-2" x="41.83" y="17.64" width="6.84" height="5.81"/>
    <path class="cls-4"
          d="M52.52,7.88l-.8,1.76a52.52,52.52,0,0,0-5.51-2.52l.87-1.92-1.82-.83-.93,2.06a51.91,51.91,0,0,0-7.47-2l.51-2.2-1.94-.45-.55,2.32a52,52,0,0,0-8.08-.55c-1.24,0-2.44.08-3.61.17L22.44.58,20.5,1l.68,2.89A52.52,52.52,0,0,0,12.6,5.71L11.24,2.53,9.4,3.32l1.28,3a53.91,53.91,0,0,0-7,3l-1-2.17L.8,8l3.59,7.44,1.8-.87L4.52,11.09a50.87,50.87,0,0,1,7-2.93l1.17,2.75,1.84-.79L13.39,7.57a49.26,49.26,0,0,1,8.25-1.68L22.37,9l1.94-.46L23.65,5.7c1-.07,2.09-.13,3.17-.14a49.94,49.94,0,0,1,7.61.51l-.86,3.67,2,.45.88-3.8a50,50,0,0,1,7.09,1.87l-1.6,3.54,1.82.83L45.38,9a50.7,50.7,0,0,1,5.51,2.52l-1.75,3.84,1.83.83L54.34,8.7Z"/>
    <rect class="cls-5" x="24.64" y="12.38" width="11.6" height="3.17"/>
</svg>
