<svg id="图层_2" data-name="图层 2" xmlns="http://www.w3.org/2000/svg" viewBox="0 0 53.1 37.38"><defs><style>.cls-1{fill:#fff;}.cls-1,.cls-4,.cls-7{stroke:#4058a6;}.cls-1,.cls-4,.cls-7,.cls-9{stroke-miterlimit:10;}.cls-2{fill:#4058a6;}.cls-3{fill:#f8f7ed;}.cls-4{fill:#ffe600;}.cls-5{fill:#f5c71d;}.cls-6{fill:#34141a;}.cls-7{fill:#418ecd;}.cls-8{fill:#72bc4a;}.cls-9{fill:none;stroke:#72bc4a;}</style></defs><title>figure</title><path class="cls-1" d="M16.25,13A6.31,6.31,0,0,0,14.4,5.44,2.71,2.71,0,0,0,13.6,5a6.53,6.53,0,0,0-6,.4.24.24,0,0,1-.35-.27A3.71,3.71,0,0,0,5.85.91L5.77.86C1.53-.85-1.4,4.15,2.12,7l.08,0a4,4,0,0,0,3.1.14.23.23,0,0,1,.28.33,5.74,5.74,0,0,0-.52,1.22A.18.18,0,0,1,5,8.88,6.92,6.92,0,0,0,8.65,22a.23.23,0,0,1,.24.14c1.69,4.37,7.68,6.08,11.69,1.49a3,3,0,0,0,.58-1c1.66-4.78-1.12-8.58-4.75-9.35A.23.23,0,0,1,16.25,13Z"/><path class="cls-2" d="M37.32,8.86l.45.32c-3.88,6.49-9.63,16.1-12.65,21.13-.59,1,.15-.35-.19.23C25.61,29.34,32.83,16.75,37.32,8.86Z"/><path class="cls-3" d="M30.78,30.06a1,1,0,0,0,.34,1.3,1,1,0,0,0,.48.15c0,.19.1.38.16.57C41.57,31,46.45,30.2,46.43,29.82l0,0a1,1,0,0,0,.13-1.34l0,0a1,1,0,0,0-.11-1.35l0,0A1,1,0,0,0,46,25.72l0,0a1,1,0,0,0-.56-1.23h0a1,1,0,0,0-.77-1.11h0a1,1,0,0,0-1-1h0a1,1,0,0,0-1.1-.78h-.05A1,1,0,0,0,41.19,21h0a1,1,0,0,0-1.3-.35l0,0a1,1,0,0,0-1.35-.13l0,0a1,1,0,0,0-1.35.11l0,0a1,1,0,0,0-1.3.34l0,0a1,1,0,0,0-1.22.56s0,0,0,0a1,1,0,0,0-1.11.77v0a1,1,0,0,0-1,1v0a1,1,0,0,0-.78,1.1v.05a1,1,0,0,0-.58,1.22l0,0a1,1,0,0,0-.36,1.3l0,0a1,1,0,0,0-.12,1.35l0,0Z"/><path class="cls-2" d="M25.05,29.81c2.62-3.59,9.24-12.66,13.65-18.73l.42.37-14,18.37"/><path class="cls-4" d="M29.33,28.58H47.64q-2.37,3-4.75,6l-7.62-.1Z"/><path class="cls-1" d="M9.47,16.23H24.72l-2,17.37H13Z"/><path class="cls-2" d="M24.29,20a7.36,7.36,0,0,0-3.08-.09,8.55,8.55,0,0,0-3.76,1.92c-1.79,1.39-1.85,2.21-3.37,3a6.91,6.91,0,0,1-2.73.8q.81,4,1.6,8h9.78Z"/><path class="cls-2" d="M23.06,33.83q-4.26,0-8.45,0a10.36,10.36,0,0,1,2.64-4.36c2.13-2,6.14-4,10-2.37,4.07,1.71,5.08,6.14,5.17,6.6C29.37,33.76,26.24,33.81,23.06,33.83Z"/><path class="cls-5" d="M15.75,30.15a4.92,4.92,0,0,1,1.82-2.23,5.24,5.24,0,0,1,1.31-.62l4.57,7.12,1.43-.14-5-7.5a4.3,4.3,0,0,1,1.4-1.12,4.81,4.81,0,0,1,1.86-.54l5.49,8.68,1.66,0q-3-4.53-5.95-9.07a7.58,7.58,0,0,1,1.42-.43,8.17,8.17,0,0,1,1.65-.14l6.29,9.56-14.52.94Z"/><path class="cls-6" d="M36.71,22.24c0-.11.65-.15.85.14,0,.07.09.19,0,.24s-.25,0-.37-.05S36.68,22.34,36.71,22.24Z"/><path class="cls-6" d="M38.33,21.08c0-.11.65-.15.85.14,0,.07.09.18,0,.24s-.26,0-.38-.05S38.31,21.18,38.33,21.08Z"/><path class="cls-6" d="M39.65,22.47c0-.1.55-.13.72.12,0,.05.08.15,0,.2s-.22,0-.32,0S39.63,22.55,39.65,22.47Z"/><path class="cls-7" d="M48.38,36.86h0a5.19,5.19,0,0,0,3.32-1.48,5.11,5.11,0,0,0,.71-.93.45.45,0,0,0-.38-.67H6.49a.45.45,0,0,0-.4.64,4.52,4.52,0,0,0,1,1.31,4.37,4.37,0,0,0,2.14,1H9.3Z"/><path class="cls-8" d="M23.88,26A1.75,1.75,0,0,1,22,27.65a1.6,1.6,0,0,1-1-2.14,1.57,1.57,0,0,1,1.57-.67,1.71,1.71,0,0,1-1.91-1.17c-.06-.7.81-1.23,1.25-1.42.26-.11,1.14-.48,1.71.05A1.44,1.44,0,0,1,23.75,24a1.45,1.45,0,0,1,1.14-1,1.41,1.41,0,0,1,1.42.74,1.66,1.66,0,0,1-.22,1.68A2,2,0,0,1,23.88,26Z"/><path class="cls-9" d="M22.1,23.24a4.45,4.45,0,0,0,4.95,3.56"/></svg>