<svg id="图层_2" data-name="图层 2" xmlns="http://www.w3.org/2000/svg" viewBox="0 0 47.68 51.49"><defs><style>.cls-1{fill:#fff;stroke:#ffe600;stroke-miterlimit:10;}.cls-2{fill:#e9433d;}</style></defs><title>figure</title><path class="cls-1" d="M36.72,3.23A3.82,3.82,0,0,0,32.2,1.38a25,25,0,0,1-7.61,1.06A25,25,0,0,1,15.93.75a3.83,3.83,0,0,0-4.47,1.36l-.89,1.22a3.65,3.65,0,0,1-1,.93L2.38,9.16a3.82,3.82,0,0,0-1.64,3.7L5.63,47.25a3.83,3.83,0,0,0,3.73,3.28l27.81.39A3.8,3.8,0,0,0,41,47.74l6-35.17a3.83,3.83,0,0,0-1.93-4l-6.7-3.67a3.79,3.79,0,0,1-1.54-1.56Z"/><path class="cls-1" d="M13.07,1.35q5.79,13.76,11.59,27.5Q22.62,34,20.57,39l-4.68-3.54C14.34,33.94,7.17,26.72,6.76,24c0-.25-.21-.5,0-.7l3.69-4.1a.5.5,0,0,0,0-.68L4.77,12.62c-.16-.16,0-.38,0-.63C4.66,8.19,10.89,3.06,13.07,1.35Z"/><path class="cls-1" d="M34.57,2.34a.5.5,0,0,0-.87,0,207.31,207.31,0,0,0-16.89,35q-2.08,5.58-3.71,10.91l4.33,2.25L34,29.23a.51.51,0,0,0,.07-.49l-2.67-6.67a.51.51,0,0,1,.16-.59l9.2-7a.5.5,0,0,0,.14-.64Q37.71,8.11,34.57,2.34Z"/><polygon class="cls-2" points="43.99 24.38 40.04 24.38 40.04 21.09 37.09 21.09 37.09 24.38 33.29 24.38 33.29 27.75 37.09 27.75 37.09 32.2 40.04 32.2 40.04 27.75 43.99 27.75 43.99 24.38"/></svg>