<svg id="图层_2" data-name="图层 2" xmlns="http://www.w3.org/2000/svg" viewBox="0 0 53.76 37.97"><defs><style>.cls-1{fill:#fff;}.cls-1,.cls-3{stroke:#4058a6;}.cls-1,.cls-2,.cls-3{stroke-miterlimit:10;}.cls-2,.cls-3{fill:none;}.cls-2{stroke:#f5c71d;}</style></defs><title>figure</title><path class="cls-1" d="M27.08,24.66A12.9,12.9,0,0,1,39.92,37.48H53.23a26.23,26.23,0,1,0-52.46,0v.06l13.46,0A12.92,12.92,0,0,1,27.08,24.66Z"/><path class="cls-2" d="M10.54,37.31A16.77,16.77,0,0,1,27.73,21.65a16.73,16.73,0,0,1,15.73,15.7"/><path class="cls-2" d="M6.43,37.3A21,21,0,0,1,27.92,17.73,20.93,20.93,0,0,1,47.57,37.35"/><path class="cls-2" d="M3.2,37.3c.9-13.18,12.2-23.2,24.86-22.64A24.2,24.2,0,0,1,50.8,37.35"/><line class="cls-3" x1="10.54" y1="2.13" x2="10.54" y2="30.38"/><polygon class="cls-1" points="27.94 6.15 10.54 0.75 10.54 11.55 27.94 6.15"/></svg>