<svg id="图层_2" data-name="图层 2" xmlns="http://www.w3.org/2000/svg" viewBox="0 0 62.98 38.58"><defs><style>.cls-1,.cls-2{fill:#3d64ae;}.cls-2{stroke:#3d64ae;stroke-width:0.5px;}.cls-2,.cls-4,.cls-7{stroke-miterlimit:10;}.cls-3{fill:#3f58a6;}.cls-4{fill:#fff;stroke:#4058a6;}.cls-5{fill:#381709;}.cls-6{fill:#3b549c;}.cls-7{fill:#2750a2;stroke:#ffe600;stroke-width:0.75px;}</style></defs><title>figure</title><rect class="cls-1" x="20.96" y="5.77" width="0.62" height="27.76" transform="translate(1.62 40.91) rotate(-90)"/><rect class="cls-1" x="20.62" y="3.79" width="0.62" height="27.76" transform="translate(3.27 38.6) rotate(-90)"/><rect class="cls-2" x="6.88" y="3.1" width="0.49" height="19.09"/><rect class="cls-2" x="34.5" y="2.98" width="0.62" height="25.51" transform="translate(69.62 31.47) rotate(180)"/><rect class="cls-2" x="52.66" y="1.86" width="0.94" height="18.18" transform="translate(-0.9 15.84) rotate(-16.81)"/><rect class="cls-3" x="39.4" y="10.7" width="2.71" height="11.77" rx="1.36" ry="1.36" transform="translate(-1.68 4.97) rotate(-6.83)"/><path class="cls-4" d="M8.36.46h0A5.59,5.59,0,0,0,4.76,2.05a4.64,4.64,0,0,0-.76,1,.48.48,0,0,0,.41.72H53.35a.48.48,0,0,0,.43-.68A4.66,4.66,0,0,0,50.41.56h-.08Z"/><rect class="cls-3" x="9.6" y="13.16" width="2.71" height="9.83" rx="1.36" ry="1.36" transform="translate(-1.48 0.99) rotate(-4.83)"/><rect class="cls-3" x="20.22" y="13.16" width="2.71" height="9.83" rx="1.36" ry="1.36" transform="translate(-2 2.7) rotate(-6.83)"/><rect class="cls-3" x="29.93" y="13.16" width="2.71" height="9.83" rx="1.36" ry="1.36" transform="translate(-1.93 3.85) rotate(-6.84)"/><path class="cls-4" d="M60,21.21a3.8,3.8,0,0,0-2.39-1.89.54.54,0,0,0-.25,0l-14.81.89a.69.69,0,0,0-.64.51l-.28,1a.72.72,0,0,1-.69.51H11.44a.72.72,0,0,1-.71-.64l-.12-1.32a.73.73,0,0,0-.7-.64L5.47,19.5a.72.72,0,0,0-.73.7l-.07,8.06a.72.72,0,0,1-.55.69A5.1,5.1,0,0,0,1.79,30.2,5.21,5.21,0,0,0,.6,32a.71.71,0,0,0,.64,1l3.39.1q20.07.51,40.16,0a.71.71,0,0,0,.7-.69A8.77,8.77,0,0,1,59,25.08a.71.71,0,0,0,1.09-.49,9.64,9.64,0,0,0,.12-1.41A4.48,4.48,0,0,0,60,21.21ZM14.24,28.6a2.4,2.4,0,0,1-1.6,0,2.59,2.59,0,0,1-1.3-1.35.72.72,0,0,1-.07-.25l-.09-1a.7.7,0,0,1,.7-.78H39.62a.72.72,0,0,1,.69.91l-.41,1.44a.72.72,0,0,1-.69.52C22.53,28,15.45,28.24,14.24,28.6Z"/><circle class="cls-5" cx="54.21" cy="31.91" r="6.67"/><path class="cls-6" d="M47.67,33.25l-2.53,0c0-.29-.78-5.22,3-8.47A9.26,9.26,0,0,1,58.2,23.58,9.8,9.8,0,0,1,63,29.24l-2.6.13a7.07,7.07,0,0,0-4.84-4,6.63,6.63,0,0,0-7.87,7.87Z"/><path class="cls-6" d="M6.9,33.12l-2.46,0c0-.33-.51-5.35,3.36-8.52a9.13,9.13,0,0,1,10.59-.67,9.44,9.44,0,0,1,4.22,9.41H20.38a7.79,7.79,0,0,0-1.92-6.48,6.93,6.93,0,0,0-8.85-.75A7.23,7.23,0,0,0,6.9,33.12Z"/><circle class="cls-5" cx="13.56" cy="31.68" r="6.67"/><circle class="cls-7" cx="13.39" cy="31.68" r="2.8"/><circle class="cls-7" cx="54.42" cy="31.68" r="2.8"/></svg>