<svg id="图层_23" data-name="图层 23" xmlns="http://www.w3.org/2000/svg" viewBox="0 0 41.46 19.61"><defs><style>.cls-1{fill:#fff;}.cls-1,.cls-3{stroke:#3b549c;}.cls-1,.cls-2,.cls-3{stroke-miterlimit:10;}.cls-2{fill:#f5c71d;stroke:#4058a6;}.cls-3{fill:none;}</style></defs><title>figure-23</title><path class="cls-1" d="M40.76,9H.81L.68,2.76A22.8,22.8,0,0,1,9.23.63c4-.18,5,.94,15.63,3.6a34.72,34.72,0,0,0,14.28.56C40.08,4.6,40.9,4.37,41,4c.11-1.05-5.18-3-10.08-3.08a21.36,21.36,0,0,0-9.69,2.18A32.56,32.56,0,0,0,30.7,5,32.88,32.88,0,0,0,41,4C40.88,5.66,40.82,7.35,40.76,9Z"/><rect class="cls-2" x="0.68" y="8.42" width="40.1" height="10.73"/><line class="cls-3" x1="8.38" y1="8.26" x2="8.38" y2="19.15"/><line class="cls-3" x1="15.46" y1="8.7" x2="15.46" y2="19.15"/><line class="cls-3" x1="22.53" y1="8.7" x2="22.53" y2="19.15"/><line class="cls-3" x1="30.3" y1="8.7" x2="30.3" y2="19.15"/><line class="cls-3" x1="37.77" y1="8.7" x2="37.77" y2="19.15"/><line class="cls-3" x1="0.48" y1="14.71" x2="40.59" y2="14.71"/></svg>