<svg id="图层_2" data-name="图层 2" xmlns="http://www.w3.org/2000/svg" viewBox="0 0 31.86 35.43"><defs><style>.cls-1{fill:#fff;}.cls-1,.cls-2{stroke:#4058a6;}.cls-1,.cls-2,.cls-3{stroke-miterlimit:10;}.cls-2{fill:#4058a6;}.cls-3{fill:none;stroke:#ffe600;}</style></defs><title>figure</title><path class="cls-1" d="M17,17.16a44.61,44.61,0,0,1-.33-7c.12-3.75.62-4.48,1.05-4.93,1.58-1.62,4.77-1.36,6.69.22.54.45.94,1,2.22,4,.89,2.09,1.57,3.86,2,5.16Z"/><path class="cls-2" d="M14.76,21.09a11.47,11.47,0,0,0,9,2.39,11.42,11.42,0,0,0,7.53-5.2,45.08,45.08,0,0,0-16.55,2.81Z"/><path class="cls-1" d="M28.65,17.51a71.9,71.9,0,0,1-.43,12.13c-.29,2.37-.48,3.83-1.47,4.68-1.58,1.36-4.37.6-5.9-1.26-1-1.19-1.18-2.53-1.52-4.24a99,99,0,0,0-2.64-10.31Z"/><path class="cls-1" d="M14.8,21.17l.3-9.66A28,28,0,0,1,28.78,8.88l2.64,9.42A48,48,0,0,0,14.8,21.17Z"/><path class="cls-3" d="M14.76,19.09c5.63-2,10.2-3.16,16.2-3.15"/><path class="cls-1" d="M14.46,14.42A49.94,49.94,0,0,0,15,6.89c0-4-.53-4.79-1-5.25C12.37-.06,8.93.3,6.82,2.05c-.6.49-1,1.06-2.5,4.3-1,2.26-1.81,4.19-2.36,5.59Z"/><path class="cls-2" d="M15.39,16a10,10,0,0,1-8.33,2.38,10.66,10.66,0,0,1-7-5.2,39.17,39.17,0,0,1,7.51.59A39.63,39.63,0,0,1,15.39,16Z"/><path class="cls-1" d="M2.24,12.46a73.79,73.79,0,0,0,.5,12.14c.31,2.38.5,3.85,1.48,4.71,1.55,1.36,4.27.63,5.74-1.22.94-1.18,1.14-2.52,1.46-4.23a96.74,96.74,0,0,1,2.5-10.31Z"/><path class="cls-1" d="M15.37,16.06,16,6.64a18.44,18.44,0,0,0-6.8-3.37A19.77,19.77,0,0,0,3.55,3L0,13.25a37.82,37.82,0,0,1,7.61.56A38.07,38.07,0,0,1,15.37,16.06Z"/><path class="cls-3" d="M15.53,14.42c-5.15-2.22-9.36-3.51-15-3.16"/></svg>