<svg id="图层_2" data-name="图层 2" xmlns="http://www.w3.org/2000/svg" viewBox="0 0 42.56 33.9"><defs><style>.cls-1,.cls-2{fill:#fff;stroke-miterlimit:10;}.cls-1{stroke:#4058a6;}.cls-2{stroke:#dc433d;}.cls-3{fill:#ffe600;}.cls-4{fill:#e9579a;}</style></defs><title>figure</title><path class="cls-1" d="M38.82.59H3.68A3.14,3.14,0,0,0,.54,3.73V27.17a3.14,3.14,0,0,0,3.14,3.15H18.43a9,9,0,0,0-3,1.58A.87.87,0,0,0,16,33.44H27.5A.87.87,0,0,0,28,31.87a10.21,10.21,0,0,0-3.37-1.55H38.82A3.15,3.15,0,0,0,42,27.17V3.73A3.15,3.15,0,0,0,38.82.59Z"/><rect class="cls-2" x="5.08" y="3.85" width="32.35" height="23.22" rx="2.96" ry="2.96"/><rect class="cls-3" x="18.34" y="27.94" width="6.37" height="1.18"/><polygon class="cls-4" points="24.71 4.25 31.06 4.25 37 10.88 37 17.57 24.71 4.25"/><polygon class="cls-3" points="7.25 4.25 13.76 4.25 32.71 26.54 25.57 26.54 7.25 4.25"/><polygon class="cls-3" points="5.55 17.32 13.06 26.54 7.25 26.54 5.55 24.14 5.55 17.32"/></svg>